# ProjectAegisRTS generated mesh
mtllib medium_tank.mtl
o TeamColorPanels_Body
usemtl mat_medium_tank_team_color
v -0.824400 1.517500 0.152000
v -0.824400 1.517500 1.252000
v -0.824400 1.562500 0.152000
v -0.824400 1.562500 1.252000
v -0.464400 1.517500 0.152000
v -0.464400 1.517500 1.252000
v -0.464400 1.562500 0.152000
v -0.464400 1.562500 1.252000
v 0.464400 1.517500 0.152000
v 0.464400 1.517500 1.252000
v 0.464400 1.562500 0.152000
v 0.464400 1.562500 1.252000
v 0.824400 1.517500 0.152000
v 0.824400 1.517500 1.252000
v 0.824400 1.562500 0.152000
v 0.824400 1.562500 1.252000
v -0.864400 1.040698 1.759065
v -0.864400 1.190395 2.463331
v -0.864400 1.089605 1.748669
v -0.864400 1.239302 2.452935
v -0.424400 1.040698 1.759065
v -0.424400 1.190395 2.463331
v -0.424400 1.089605 1.748669
v -0.424400 1.239302 2.452935
v 0.424400 1.040698 1.759065
v 0.424400 1.190395 2.463331
v 0.424400 1.089605 1.748669
v 0.424400 1.239302 2.452935
v 0.864400 1.040698 1.759065
v 0.864400 1.190395 2.463331
v 0.864400 1.089605 1.748669
v 0.864400 1.239302 2.452935
v -1.599200 0.930000 -0.583000
v -1.599200 0.930000 0.367000
v -1.599200 1.350000 -0.583000
v -1.599200 1.350000 0.367000
v -1.551200 0.930000 -0.583000
v -1.551200 0.930000 0.367000
v -1.551200 1.350000 -0.583000
v -1.551200 1.350000 0.367000
v -1.599200 0.760000 1.364000
v -1.599200 0.760000 1.984000
v -1.599200 1.080000 1.364000
v -1.599200 1.080000 1.984000
v -1.551200 0.760000 1.364000
v -1.551200 0.760000 1.984000
v -1.551200 1.080000 1.364000
v -1.551200 1.080000 1.984000
v -1.599200 0.870000 -2.126000
v -1.599200 0.870000 -1.546000
v -1.599200 1.190000 -2.126000
v -1.599200 1.190000 -1.546000
v -1.551200 0.870000 -2.126000
v -1.551200 0.870000 -1.546000
v -1.551200 1.190000 -2.126000
v -1.551200 1.190000 -1.546000
v 1.551200 0.930000 -0.583000
v 1.551200 0.930000 0.367000
v 1.551200 1.350000 -0.583000
v 1.551200 1.350000 0.367000
v 1.599200 0.930000 -0.583000
v 1.599200 0.930000 0.367000
v 1.599200 1.350000 -0.583000
v 1.599200 1.350000 0.367000
v 1.551200 0.760000 1.364000
v 1.551200 0.760000 1.984000
v 1.551200 1.080000 1.364000
v 1.551200 1.080000 1.984000
v 1.599200 0.760000 1.364000
v 1.599200 0.760000 1.984000
v 1.599200 1.080000 1.364000
v 1.599200 1.080000 1.984000
v 1.551200 0.870000 -2.126000
v 1.551200 0.870000 -1.546000
v 1.551200 1.190000 -2.126000
v 1.551200 1.190000 -1.546000
v 1.599200 0.870000 -2.126000
v 1.599200 0.870000 -1.546000
v 1.599200 1.190000 -2.126000
v 1.599200 1.190000 -1.546000
v -0.644400 0.840000 -2.670000
v -0.644400 0.840000 -2.622000
v -0.644400 1.200000 -2.670000
v -0.644400 1.200000 -2.622000
v 0.644400 0.840000 -2.670000
v 0.644400 0.840000 -2.622000
v 0.644400 1.200000 -2.670000
v 0.644400 1.200000 -2.622000
v -0.823400 0.520000 2.694000
v -0.823400 0.520000 2.814000
v -0.823400 0.580000 2.694000
v -0.823400 0.580000 2.814000
v 0.823400 0.520000 2.694000
v 0.823400 0.520000 2.814000
v 0.823400 0.580000 2.694000
v 0.823400 0.580000 2.814000
vt 0.242246 0.514588
vt 0.242246 0.715171
vt 0.242246 0.514588
vt 0.242246 0.715171
vt 0.354802 0.514588
vt 0.354802 0.715171
vt 0.354802 0.514588
vt 0.354802 0.715171
vt 0.645198 0.514588
vt 0.645198 0.715171
vt 0.645198 0.514588
vt 0.645198 0.715171
vt 0.757754 0.514588
vt 0.757754 0.715171
vt 0.757754 0.514588
vt 0.757754 0.715171
vt 0.229740 0.807634
vt 0.229740 0.936056
vt 0.229740 0.805738
vt 0.229740 0.934160
vt 0.367309 0.807634
vt 0.367309 0.936056
vt 0.367309 0.805738
vt 0.367309 0.934160
vt 0.632691 0.807634
vt 0.632691 0.936056
vt 0.632691 0.805738
vt 0.632691 0.934160
vt 0.770260 0.807634
vt 0.770260 0.936056
vt 0.770260 0.805738
vt 0.770260 0.934160
vt 0.000000 0.380562
vt 0.000000 0.553793
vt 0.000000 0.380562
vt 0.000000 0.553793
vt 0.015008 0.380562
vt 0.015008 0.553793
vt 0.015008 0.380562
vt 0.015008 0.553793
vt 0.000000 0.735594
vt 0.000000 0.848651
vt 0.000000 0.735594
vt 0.000000 0.848651
vt 0.015008 0.735594
vt 0.015008 0.848651
vt 0.015008 0.735594
vt 0.015008 0.848651
vt 0.000000 0.099198
vt 0.000000 0.204960
vt 0.000000 0.099198
vt 0.000000 0.204960
vt 0.015008 0.099198
vt 0.015008 0.204960
vt 0.015008 0.099198
vt 0.015008 0.204960
vt 0.984992 0.380562
vt 0.984992 0.553793
vt 0.984992 0.380562
vt 0.984992 0.553793
vt 1.000000 0.380562
vt 1.000000 0.553793
vt 1.000000 0.380562
vt 1.000000 0.553793
vt 0.984992 0.735594
vt 0.984992 0.848651
vt 0.984992 0.735594
vt 0.984992 0.848651
vt 1.000000 0.735594
vt 1.000000 0.848651
vt 1.000000 0.735594
vt 1.000000 0.848651
vt 0.984992 0.099198
vt 0.984992 0.204960
vt 0.984992 0.099198
vt 0.984992 0.204960
vt 1.000000 0.099198
vt 1.000000 0.204960
vt 1.000000 0.099198
vt 1.000000 0.204960
vt 0.298524 0.000000
vt 0.298524 0.008753
vt 0.298524 0.000000
vt 0.298524 0.008753
vt 0.701476 0.000000
vt 0.701476 0.008753
vt 0.701476 0.000000
vt 0.701476 0.008753
vt 0.242559 0.978118
vt 0.242559 1.000000
vt 0.242559 0.978118
vt 0.242559 1.000000
vt 0.757441 0.978118
vt 0.757441 1.000000
vt 0.757441 0.978118
vt 0.757441 1.000000
vn -0.577350 -0.577350 -0.577350
vn -0.577350 -0.577350 0.577350
vn -0.577350 0.577350 -0.577350
vn -0.577350 0.577350 0.577350
vn 0.577350 -0.577350 -0.577350
vn 0.577350 -0.577350 0.577350
vn 0.577350 0.577350 -0.577350
vn 0.577350 0.577350 0.577350
vn -0.577350 -0.577350 -0.577350
vn -0.577350 -0.577350 0.577350
vn -0.577350 0.577350 -0.577350
vn -0.577350 0.577350 0.577350
vn 0.577350 -0.577350 -0.577350
vn 0.577350 -0.577350 0.577350
vn 0.577350 0.577350 -0.577350
vn 0.577350 0.577350 0.577350
vn -0.577350 -0.684772 -0.444696
vn -0.577350 -0.444696 0.684772
vn -0.577350 0.444696 -0.684772
vn -0.577350 0.684772 0.444696
vn 0.577350 -0.684772 -0.444696
vn 0.577350 -0.444696 0.684772
vn 0.577350 0.444696 -0.684772
vn 0.577350 0.684772 0.444696
vn -0.577350 -0.684772 -0.444696
vn -0.577350 -0.444696 0.684772
vn -0.577350 0.444696 -0.684772
vn -0.577350 0.684772 0.444696
vn 0.577350 -0.684772 -0.444696
vn 0.577350 -0.444696 0.684772
vn 0.577350 0.444696 -0.684772
vn 0.577350 0.684772 0.444696
vn -0.577350 -0.577350 -0.577350
vn -0.577350 -0.577350 0.577350
vn -0.577350 0.577350 -0.577350
vn -0.577350 0.577350 0.577350
vn 0.577350 -0.577350 -0.577350
vn 0.577350 -0.577350 0.577350
vn 0.577350 0.577350 -0.577350
vn 0.577350 0.577350 0.577350
vn -0.577350 -0.577350 -0.577350
vn -0.577350 -0.577350 0.577350
vn -0.577350 0.577350 -0.577350
vn -0.577350 0.577350 0.577350
vn 0.577350 -0.577350 -0.577350
vn 0.577350 -0.577350 0.577350
vn 0.577350 0.577350 -0.577350
vn 0.577350 0.577350 0.577350
vn -0.577350 -0.577350 -0.577350
vn -0.577350 -0.577350 0.577350
vn -0.577350 0.577350 -0.577350
vn -0.577350 0.577350 0.577350
vn 0.577350 -0.577350 -0.577350
vn 0.577350 -0.577350 0.577350
vn 0.577350 0.577350 -0.577350
vn 0.577350 0.577350 0.577350
vn -0.577350 -0.577350 -0.577350
vn -0.577350 -0.577350 0.577350
vn -0.577350 0.577350 -0.577350
vn -0.577350 0.577350 0.577350
vn 0.577350 -0.577350 -0.577350
vn 0.577350 -0.577350 0.577350
vn 0.577350 0.577350 -0.577350
vn 0.577350 0.577350 0.577350
vn -0.577350 -0.577350 -0.577350
vn -0.577350 -0.577350 0.577350
vn -0.577350 0.577350 -0.577350
vn -0.577350 0.577350 0.577350
vn 0.577350 -0.577350 -0.577350
vn 0.577350 -0.577350 0.577350
vn 0.577350 0.577350 -0.577350
vn 0.577350 0.577350 0.577350
vn -0.577350 -0.577350 -0.577350
vn -0.577350 -0.577350 0.577350
vn -0.577350 0.577350 -0.577350
vn -0.577350 0.577350 0.577350
vn 0.577350 -0.577350 -0.577350
vn 0.577350 -0.577350 0.577350
vn 0.577350 0.577350 -0.577350
vn 0.577350 0.577350 0.577350
vn -0.577350 -0.577350 -0.577350
vn -0.577350 -0.577350 0.577350
vn -0.577350 0.577350 -0.577350
vn -0.577350 0.577350 0.577350
vn 0.577350 -0.577350 -0.577350
vn 0.577350 -0.577350 0.577350
vn 0.577350 0.577350 -0.577350
vn 0.577350 0.577350 0.577350
vn -0.577350 -0.577350 -0.577350
vn -0.577350 -0.577350 0.577350
vn -0.577350 0.577350 -0.577350
vn -0.577350 0.577350 0.577350
vn 0.577350 -0.577350 -0.577350
vn 0.577350 -0.577350 0.577350
vn 0.577350 0.577350 -0.577350
vn 0.577350 0.577350 0.577350
f 2/2/2 4/4/4 1/1/1
f 5/5/5 2/2/2 1/1/1
f 1/1/1 4/4/4 3/3/3
f 3/3/3 5/5/5 1/1/1
f 2/2/2 8/8/8 4/4/4
f 6/6/6 2/2/2 5/5/5
f 6/6/6 8/8/8 2/2/2
f 4/4/4 8/8/8 3/3/3
f 7/7/7 5/5/5 3/3/3
f 3/3/3 8/8/8 7/7/7
f 7/7/7 6/6/6 5/5/5
f 8/8/8 6/6/6 7/7/7
f 10/10/10 12/12/12 9/9/9
f 13/13/13 10/10/10 9/9/9
f 9/9/9 12/12/12 11/11/11
f 11/11/11 13/13/13 9/9/9
f 10/10/10 16/16/16 12/12/12
f 14/14/14 10/10/10 13/13/13
f 14/14/14 16/16/16 10/10/10
f 12/12/12 16/16/16 11/11/11
f 15/15/15 13/13/13 11/11/11
f 11/11/11 16/16/16 15/15/15
f 15/15/15 14/14/14 13/13/13
f 16/16/16 14/14/14 15/15/15
f 18/18/18 20/20/20 17/17/17
f 21/21/21 18/18/18 17/17/17
f 17/17/17 20/20/20 19/19/19
f 19/19/19 21/21/21 17/17/17
f 18/18/18 24/24/24 20/20/20
f 22/22/22 18/18/18 21/21/21
f 22/22/22 24/24/24 18/18/18
f 20/20/20 24/24/24 19/19/19
f 23/23/23 21/21/21 19/19/19
f 19/19/19 24/24/24 23/23/23
f 23/23/23 22/22/22 21/21/21
f 24/24/24 22/22/22 23/23/23
f 26/26/26 28/28/28 25/25/25
f 29/29/29 26/26/26 25/25/25
f 25/25/25 28/28/28 27/27/27
f 27/27/27 29/29/29 25/25/25
f 26/26/26 32/32/32 28/28/28
f 30/30/30 26/26/26 29/29/29
f 30/30/30 32/32/32 26/26/26
f 28/28/28 32/32/32 27/27/27
f 31/31/31 29/29/29 27/27/27
f 27/27/27 32/32/32 31/31/31
f 31/31/31 30/30/30 29/29/29
f 32/32/32 30/30/30 31/31/31
f 34/34/34 36/36/36 33/33/33
f 37/37/37 34/34/34 33/33/33
f 33/33/33 36/36/36 35/35/35
f 35/35/35 37/37/37 33/33/33
f 34/34/34 40/40/40 36/36/36
f 38/38/38 34/34/34 37/37/37
f 38/38/38 40/40/40 34/34/34
f 36/36/36 40/40/40 35/35/35
f 39/39/39 37/37/37 35/35/35
f 35/35/35 40/40/40 39/39/39
f 39/39/39 38/38/38 37/37/37
f 40/40/40 38/38/38 39/39/39
f 42/42/42 44/44/44 41/41/41
f 45/45/45 42/42/42 41/41/41
f 41/41/41 44/44/44 43/43/43
f 43/43/43 45/45/45 41/41/41
f 42/42/42 48/48/48 44/44/44
f 46/46/46 42/42/42 45/45/45
f 46/46/46 48/48/48 42/42/42
f 44/44/44 48/48/48 43/43/43
f 47/47/47 45/45/45 43/43/43
f 43/43/43 48/48/48 47/47/47
f 47/47/47 46/46/46 45/45/45
f 48/48/48 46/46/46 47/47/47
f 50/50/50 52/52/52 49/49/49
f 53/53/53 50/50/50 49/49/49
f 49/49/49 52/52/52 51/51/51
f 51/51/51 53/53/53 49/49/49
f 50/50/50 56/56/56 52/52/52
f 54/54/54 50/50/50 53/53/53
f 54/54/54 56/56/56 50/50/50
f 52/52/52 56/56/56 51/51/51
f 55/55/55 53/53/53 51/51/51
f 51/51/51 56/56/56 55/55/55
f 55/55/55 54/54/54 53/53/53
f 56/56/56 54/54/54 55/55/55
f 58/58/58 60/60/60 57/57/57
f 61/61/61 58/58/58 57/57/57
f 57/57/57 60/60/60 59/59/59
f 59/59/59 61/61/61 57/57/57
f 58/58/58 64/64/64 60/60/60
f 62/62/62 58/58/58 61/61/61
f 62/62/62 64/64/64 58/58/58
f 60/60/60 64/64/64 59/59/59
f 63/63/63 61/61/61 59/59/59
f 59/59/59 64/64/64 63/63/63
f 63/63/63 62/62/62 61/61/61
f 64/64/64 62/62/62 63/63/63
f 66/66/66 68/68/68 65/65/65
f 69/69/69 66/66/66 65/65/65
f 65/65/65 68/68/68 67/67/67
f 67/67/67 69/69/69 65/65/65
f 66/66/66 72/72/72 68/68/68
f 70/70/70 66/66/66 69/69/69
f 70/70/70 72/72/72 66/66/66
f 68/68/68 72/72/72 67/67/67
f 71/71/71 69/69/69 67/67/67
f 67/67/67 72/72/72 71/71/71
f 71/71/71 70/70/70 69/69/69
f 72/72/72 70/70/70 71/71/71
f 74/74/74 76/76/76 73/73/73
f 77/77/77 74/74/74 73/73/73
f 73/73/73 76/76/76 75/75/75
f 75/75/75 77/77/77 73/73/73
f 74/74/74 80/80/80 76/76/76
f 78/78/78 74/74/74 77/77/77
f 78/78/78 80/80/80 74/74/74
f 76/76/76 80/80/80 75/75/75
f 79/79/79 77/77/77 75/75/75
f 75/75/75 80/80/80 79/79/79
f 79/79/79 78/78/78 77/77/77
f 80/80/80 78/78/78 79/79/79
f 82/82/82 84/84/84 81/81/81
f 85/85/85 82/82/82 81/81/81
f 81/81/81 84/84/84 83/83/83
f 83/83/83 85/85/85 81/81/81
f 82/82/82 88/88/88 84/84/84
f 86/86/86 82/82/82 85/85/85
f 86/86/86 88/88/88 82/82/82
f 84/84/84 88/88/88 83/83/83
f 87/87/87 85/85/85 83/83/83
f 83/83/83 88/88/88 87/87/87
f 87/87/87 86/86/86 85/85/85
f 88/88/88 86/86/86 87/87/87
f 90/90/90 92/92/92 89/89/89
f 93/93/93 90/90/90 89/89/89
f 89/89/89 92/92/92 91/91/91
f 91/91/91 93/93/93 89/89/89
f 90/90/90 96/96/96 92/92/92
f 94/94/94 90/90/90 93/93/93
f 94/94/94 96/96/96 90/90/90
f 92/92/92 96/96/96 91/91/91
f 95/95/95 93/93/93 91/91/91
f 91/91/91 96/96/96 95/95/95
f 95/95/95 94/94/94 93/93/93
f 96/96/96 94/94/94 95/95/95
