# ProjectAegisRTS generated mesh
mtllib medium_tank.mtl
o Projectile
usemtl mat_medium_tank_weapon
v 0.055000 0.000000 0.000000
v 0.047631 0.027500 0.000000
v 0.027500 0.047631 0.000000
v 0.000000 0.055000 0.000000
v -0.027500 0.047631 0.000000
v -0.047631 0.027500 0.000000
v -0.055000 0.000000 0.000000
v -0.047631 -0.027500 0.000000
v -0.027500 -0.047631 0.000000
v -0.000000 -0.055000 0.000000
v 0.027500 -0.047631 0.000000
v 0.047631 -0.027500 0.000000
v 0.041250 0.000000 0.302400
v 0.035724 0.020625 0.302400
v 0.020625 0.035724 0.302400
v 0.000000 0.041250 0.302400
v -0.020625 0.035724 0.302400
v -0.035724 0.020625 0.302400
v -0.041250 0.000000 0.302400
v -0.035724 -0.020625 0.302400
v -0.020625 -0.035724 0.302400
v -0.000000 -0.041250 0.302400
v 0.020625 -0.035724 0.302400
v 0.035724 -0.020625 0.302400
v 0.000000 0.000000 0.000000
v 0.000000 0.000000 0.302400
v 0.000000 0.000000 0.361200
v 0.041250 0.000000 0.361200
v 0.000000 0.000000 0.478800
v 0.035724 0.020625 0.361200
v 0.020625 0.035724 0.361200
v 0.000000 0.041250 0.361200
v -0.020625 0.035724 0.361200
v -0.035724 0.020625 0.361200
v -0.041250 0.000000 0.361200
v -0.035724 -0.020625 0.361200
v -0.020625 -0.035724 0.361200
v -0.000000 -0.041250 0.361200
v 0.020625 -0.035724 0.361200
v 0.035724 -0.020625 0.361200
vt 1.000000 0.000000
vt 0.933013 0.000000
vt 0.750000 0.000000
vt 0.500000 0.000000
vt 0.250000 0.000000
vt 0.066987 0.000000
vt 0.000000 0.000000
vt 0.066987 0.000000
vt 0.250000 0.000000
vt 0.500000 0.000000
vt 0.750000 0.000000
vt 0.933013 0.000000
vt 0.875000 0.631579
vt 0.824760 0.631579
vt 0.687500 0.631579
vt 0.500000 0.631579
vt 0.312500 0.631579
vt 0.175240 0.631579
vt 0.125000 0.631579
vt 0.175240 0.631579
vt 0.312500 0.631579
vt 0.500000 0.631579
vt 0.687500 0.631579
vt 0.824760 0.631579
vt 0.500000 0.000000
vt 0.500000 0.631579
vt 0.500000 0.754386
vt 0.875000 0.754386
vt 0.500000 1.000000
vt 0.824760 0.754386
vt 0.687500 0.754386
vt 0.500000 0.754386
vt 0.312500 0.754386
vt 0.175240 0.754386
vt 0.125000 0.754386
vt 0.175240 0.754386
vt 0.312500 0.754386
vt 0.500000 0.754386
vt 0.687500 0.754386
vt 0.824760 0.754386
vn 0.771523 -0.000000 -0.636201
vn 0.668159 0.385762 -0.636201
vn 0.385762 0.668159 -0.636201
vn -0.000000 0.771523 -0.636201
vn -0.385762 0.668159 -0.636201
vn -0.668159 0.385762 -0.636201
vn -0.771523 0.000000 -0.636201
vn -0.668159 -0.385762 -0.636201
vn -0.385762 -0.668159 -0.636201
vn -0.000000 -0.771523 -0.636201
vn 0.385762 -0.668159 -0.636201
vn 0.668159 -0.385762 -0.636201
vn 0.742328 -0.000000 0.670037
vn 0.642875 0.371164 0.670037
vn 0.371164 0.642875 0.670037
vn 0.000000 0.742328 0.670037
vn -0.371164 0.642875 0.670037
vn -0.642875 0.371164 0.670037
vn -0.742328 0.000000 0.670037
vn -0.642875 -0.371164 0.670037
vn -0.371164 -0.642875 0.670037
vn -0.000000 -0.742328 0.670037
vn 0.371164 -0.642875 0.670037
vn 0.642875 -0.371164 0.670037
vn 0.000000 0.000000 -1.000000
vn 0.000000 0.000000 1.000000
vn 0.000000 0.000000 -1.000000
vn 0.852659 -0.000000 -0.522467
vn -0.000000 0.000000 1.000000
vn 0.738425 0.426330 -0.522467
vn 0.426330 0.738425 -0.522467
vn 0.000000 0.852659 -0.522467
vn -0.426330 0.738425 -0.522467
vn -0.738425 0.426330 -0.522467
vn -0.852659 0.000000 -0.522467
vn -0.738425 -0.426330 -0.522467
vn -0.426330 -0.738425 -0.522467
vn -0.000000 -0.852659 -0.522467
vn 0.426330 -0.738425 -0.522467
vn 0.738425 -0.426330 -0.522467
f 1/1/1 2/2/2 14/14/14
f 1/1/1 14/14/14 13/13/13
f 2/2/2 3/3/3 15/15/15
f 2/2/2 15/15/15 14/14/14
f 3/3/3 4/4/4 16/16/16
f 3/3/3 16/16/16 15/15/15
f 4/4/4 5/5/5 17/17/17
f 4/4/4 17/17/17 16/16/16
f 5/5/5 6/6/6 18/18/18
f 5/5/5 18/18/18 17/17/17
f 6/6/6 7/7/7 19/19/19
f 6/6/6 19/19/19 18/18/18
f 7/7/7 8/8/8 20/20/20
f 7/7/7 20/20/20 19/19/19
f 8/8/8 9/9/9 21/21/21
f 8/8/8 21/21/21 20/20/20
f 9/9/9 10/10/10 22/22/22
f 9/9/9 22/22/22 21/21/21
f 10/10/10 11/11/11 23/23/23
f 10/10/10 23/23/23 22/22/22
f 11/11/11 12/12/12 24/24/24
f 11/11/11 24/24/24 23/23/23
f 12/12/12 1/1/1 13/13/13
f 12/12/12 13/13/13 24/24/24
f 25/25/25 2/2/2 1/1/1
f 26/26/26 13/13/13 14/14/14
f 25/25/25 3/3/3 2/2/2
f 26/26/26 14/14/14 15/15/15
f 25/25/25 4/4/4 3/3/3
f 26/26/26 15/15/15 16/16/16
f 25/25/25 5/5/5 4/4/4
f 26/26/26 16/16/16 17/17/17
f 25/25/25 6/6/6 5/5/5
f 26/26/26 17/17/17 18/18/18
f 25/25/25 7/7/7 6/6/6
f 26/26/26 18/18/18 19/19/19
f 25/25/25 8/8/8 7/7/7
f 26/26/26 19/19/19 20/20/20
f 25/25/25 9/9/9 8/8/8
f 26/26/26 20/20/20 21/21/21
f 25/25/25 10/10/10 9/9/9
f 26/26/26 21/21/21 22/22/22
f 25/25/25 11/11/11 10/10/10
f 26/26/26 22/22/22 23/23/23
f 25/25/25 12/12/12 11/11/11
f 26/26/26 23/23/23 24/24/24
f 25/25/25 1/1/1 12/12/12
f 26/26/26 24/24/24 13/13/13
f 28/28/28 27/27/27 30/30/30
f 28/28/28 30/30/30 29/29/29
f 30/30/30 27/27/27 31/31/31
f 30/30/30 31/31/31 29/29/29
f 31/31/31 27/27/27 32/32/32
f 31/31/31 32/32/32 29/29/29
f 32/32/32 27/27/27 33/33/33
f 32/32/32 33/33/33 29/29/29
f 33/33/33 27/27/27 34/34/34
f 33/33/33 34/34/34 29/29/29
f 34/34/34 27/27/27 35/35/35
f 34/34/34 35/35/35 29/29/29
f 35/35/35 27/27/27 36/36/36
f 35/35/35 36/36/36 29/29/29
f 36/36/36 27/27/27 37/37/37
f 36/36/36 37/37/37 29/29/29
f 37/37/37 27/27/27 38/38/38
f 37/37/37 38/38/38 29/29/29
f 38/38/38 27/27/27 39/39/39
f 38/38/38 39/39/39 29/29/29
f 39/39/39 27/27/27 40/40/40
f 39/39/39 40/40/40 29/29/29
f 40/40/40 27/27/27 28/28/28
f 40/40/40 28/28/28 29/29/29
