mtllib harvester.mtl
o harvester_conveyor
usemtl mat_harvester_tracks
v -0.525000 1.105998 -0.531406
v -0.525000 1.435045 2.148468
v -0.525000 1.244955 -0.548468
v -0.525000 1.574002 2.131406
v 0.525000 1.105998 -0.531406
v 0.525000 1.435045 2.148468
v 0.525000 1.244955 -0.548468
v 0.525000 1.574002 2.131406
v -0.710000 1.136709 -0.628285
v -0.710000 1.484037 2.200472
v -0.710000 1.235963 -0.640472
v -0.710000 1.583291 2.188285
v -0.530000 1.136709 -0.628285
v -0.530000 1.484037 2.200472
v -0.530000 1.235963 -0.640472
v -0.530000 1.583291 2.188285
v 0.530000 1.136709 -0.628285
v 0.530000 1.484037 2.200472
v 0.530000 1.235963 -0.640472
v 0.530000 1.583291 2.188285
v 0.710000 1.136709 -0.628285
v 0.710000 1.484037 2.200472
v 0.710000 1.235963 -0.640472
v 0.710000 1.583291 2.188285
v -0.500000 1.415274 -0.287264
v -0.500000 1.425024 -0.207861
v -0.500000 1.454976 -0.292139
v -0.500000 1.464726 -0.212736
v 0.500000 1.415274 -0.287264
v 0.500000 1.425024 -0.207861
v 0.500000 1.454976 -0.292139
v 0.500000 1.464726 -0.212736
v -0.500000 1.415274 0.012736
v -0.500000 1.425024 0.092139
v -0.500000 1.454976 0.007861
v -0.500000 1.464726 0.087264
v 0.500000 1.415274 0.012736
v 0.500000 1.425024 0.092139
v 0.500000 1.454976 0.007861
v 0.500000 1.464726 0.087264
v -0.500000 1.415274 0.312736
v -0.500000 1.425024 0.392139
v -0.500000 1.454976 0.307861
v -0.500000 1.464726 0.387264
v 0.500000 1.415274 0.312736
v 0.500000 1.425024 0.392139
v 0.500000 1.454976 0.307861
v 0.500000 1.464726 0.387264
v -0.500000 1.415274 0.612736
v -0.500000 1.425024 0.692139
v -0.500000 1.454976 0.607861
v -0.500000 1.464726 0.687264
v 0.500000 1.415274 0.612736
v 0.500000 1.425024 0.692139
v 0.500000 1.454976 0.607861
v 0.500000 1.464726 0.687264
v -0.500000 1.415274 0.912736
v -0.500000 1.425024 0.992139
v -0.500000 1.454976 0.907861
v -0.500000 1.464726 0.987264
v 0.500000 1.415274 0.912736
v 0.500000 1.425024 0.992139
v 0.500000 1.454976 0.907861
v 0.500000 1.464726 0.987264
v -0.500000 1.415274 1.212736
v -0.500000 1.425024 1.292139
v -0.500000 1.454976 1.207861
v -0.500000 1.464726 1.287264
v 0.500000 1.415274 1.212736
v 0.500000 1.425024 1.292139
v 0.500000 1.454976 1.207861
v 0.500000 1.464726 1.287264
v -0.500000 1.415274 1.512736
v -0.500000 1.425024 1.592139
v -0.500000 1.454976 1.507861
v -0.500000 1.464726 1.587264
v 0.500000 1.415274 1.512736
v 0.500000 1.425024 1.592139
v 0.500000 1.454976 1.507861
v 0.500000 1.464726 1.587264
v -0.500000 1.415274 1.812736
v -0.500000 1.425024 1.892139
v -0.500000 1.454976 1.807861
v -0.500000 1.464726 1.887264
v 0.500000 1.415274 1.812736
v 0.500000 1.425024 1.892139
v 0.500000 1.454976 1.807861
v 0.500000 1.464726 1.887264
v -0.600000 1.280000 2.200000
v -0.600000 1.280000 2.080000
v 0.600000 1.280000 2.080000
v 0.600000 1.280000 2.200000
v -0.600000 1.340000 2.096077
v 0.600000 1.340000 2.096077
v -0.600000 1.383923 2.140000
v 0.600000 1.383923 2.140000
v -0.600000 1.400000 2.200000
v 0.600000 1.400000 2.200000
v -0.600000 1.383923 2.260000
v 0.600000 1.383923 2.260000
v -0.600000 1.340000 2.303923
v 0.600000 1.340000 2.303923
v -0.600000 1.280000 2.320000
v 0.600000 1.280000 2.320000
v -0.600000 1.220000 2.303923
v 0.600000 1.220000 2.303923
v -0.600000 1.176077 2.260000
v 0.600000 1.176077 2.260000
v -0.600000 1.160000 2.200000
v 0.600000 1.160000 2.200000
v -0.600000 1.176077 2.140000
v 0.600000 1.176077 2.140000
v -0.600000 1.220000 2.096077
v 0.600000 1.220000 2.096077
v -0.600000 1.180000 -0.550000
v -0.600000 1.180000 -0.650000
v 0.600000 1.180000 -0.650000
v 0.600000 1.180000 -0.550000
v -0.600000 1.230000 -0.636603
v 0.600000 1.230000 -0.636603
v -0.600000 1.266603 -0.600000
v 0.600000 1.266603 -0.600000
v -0.600000 1.280000 -0.550000
v 0.600000 1.280000 -0.550000
v -0.600000 1.266603 -0.500000
v 0.600000 1.266603 -0.500000
v -0.600000 1.230000 -0.463397
v 0.600000 1.230000 -0.463397
v -0.600000 1.180000 -0.450000
v 0.600000 1.180000 -0.450000
v -0.600000 1.130000 -0.463397
v 0.600000 1.130000 -0.463397
v -0.600000 1.093397 -0.500000
v 0.600000 1.093397 -0.500000
v -0.600000 1.080000 -0.550000
v 0.600000 1.080000 -0.550000
v -0.600000 1.093397 -0.600000
v 0.600000 1.093397 -0.600000
v -0.600000 1.130000 -0.636603
v 0.600000 1.130000 -0.636603
vn -0.577350 -0.643408 -0.502685
vn -0.577350 -0.502685 0.643408
vn -0.577350 0.502685 -0.643408
vn -0.577350 0.643408 0.502685
vn 0.577350 -0.643408 -0.502685
vn 0.577350 -0.502685 0.643408
vn 0.577350 0.502685 -0.643408
vn 0.577350 0.643408 0.502685
vn -0.577350 -0.643408 -0.502685
vn -0.577350 -0.502685 0.643408
vn -0.577350 0.502685 -0.643408
vn -0.577350 0.643408 0.502685
vn 0.577350 -0.643408 -0.502685
vn 0.577350 -0.502685 0.643408
vn 0.577350 0.502685 -0.643408
vn 0.577350 0.643408 0.502685
vn -0.577350 -0.643408 -0.502685
vn -0.577350 -0.502685 0.643408
vn -0.577350 0.502685 -0.643408
vn -0.577350 0.643408 0.502685
vn 0.577350 -0.643408 -0.502685
vn 0.577350 -0.502685 0.643408
vn 0.577350 0.502685 -0.643408
vn 0.577350 0.643408 0.502685
vn -0.577350 -0.643408 -0.502685
vn -0.577350 -0.502685 0.643408
vn -0.577350 0.502685 -0.643408
vn -0.577350 0.643408 0.502685
vn 0.577350 -0.643408 -0.502685
vn 0.577350 -0.502685 0.643408
vn 0.577350 0.502685 -0.643408
vn 0.577350 0.643408 0.502685
vn -0.577350 -0.643408 -0.502685
vn -0.577350 -0.502685 0.643408
vn -0.577350 0.502685 -0.643408
vn -0.577350 0.643408 0.502685
vn 0.577350 -0.643408 -0.502685
vn 0.577350 -0.502685 0.643408
vn 0.577350 0.502685 -0.643408
vn 0.577350 0.643408 0.502685
vn -0.577350 -0.643408 -0.502685
vn -0.577350 -0.502685 0.643408
vn -0.577350 0.502685 -0.643408
vn -0.577350 0.643408 0.502685
vn 0.577350 -0.643408 -0.502685
vn 0.577350 -0.502685 0.643408
vn 0.577350 0.502685 -0.643408
vn 0.577350 0.643408 0.502685
vn -0.577350 -0.643408 -0.502685
vn -0.577350 -0.502685 0.643408
vn -0.577350 0.502685 -0.643408
vn -0.577350 0.643408 0.502685
vn 0.577350 -0.643408 -0.502685
vn 0.577350 -0.502685 0.643408
vn 0.577350 0.502685 -0.643408
vn 0.577350 0.643408 0.502685
vn -0.577350 -0.643408 -0.502685
vn -0.577350 -0.502685 0.643408
vn -0.577350 0.502685 -0.643408
vn -0.577350 0.643408 0.502685
vn 0.577350 -0.643408 -0.502685
vn 0.577350 -0.502685 0.643408
vn 0.577350 0.502685 -0.643408
vn 0.577350 0.643408 0.502685
vn -0.577350 -0.643408 -0.502685
vn -0.577350 -0.502685 0.643408
vn -0.577350 0.502685 -0.643408
vn -0.577350 0.643408 0.502685
vn 0.577350 -0.643408 -0.502685
vn 0.577350 -0.502685 0.643408
vn 0.577350 0.502685 -0.643408
vn 0.577350 0.643408 0.502685
vn -0.577350 -0.643408 -0.502685
vn -0.577350 -0.502685 0.643408
vn -0.577350 0.502685 -0.643408
vn -0.577350 0.643408 0.502685
vn 0.577350 -0.643408 -0.502685
vn 0.577350 -0.502685 0.643408
vn 0.577350 0.502685 -0.643408
vn 0.577350 0.643408 0.502685
vn -0.577350 -0.643408 -0.502685
vn -0.577350 -0.502685 0.643408
vn -0.577350 0.502685 -0.643408
vn -0.577350 0.643408 0.502685
vn 0.577350 -0.643408 -0.502685
vn 0.577350 -0.502685 0.643408
vn 0.577350 0.502685 -0.643408
vn 0.577350 0.643408 0.502685
vn -1.000000 0.000000 0.000000
vn -0.653227 0.000000 -0.757162
vn 0.653227 -0.000000 -0.757162
vn 1.000000 0.000000 0.000000
vn -0.653227 0.378581 -0.655722
vn 0.653227 0.378581 -0.655722
vn -0.653227 0.655722 -0.378581
vn 0.653227 0.655722 -0.378581
vn -0.653227 0.757162 0.000000
vn 0.653227 0.757162 -0.000000
vn -0.653227 0.655722 0.378581
vn 0.653227 0.655722 0.378581
vn -0.653227 0.378581 0.655722
vn 0.653227 0.378581 0.655722
vn -0.653227 -0.000000 0.757162
vn 0.653227 0.000000 0.757162
vn -0.653227 -0.378581 0.655722
vn 0.653227 -0.378581 0.655722
vn -0.653227 -0.655722 0.378581
vn 0.653227 -0.655722 0.378581
vn -0.653227 -0.757162 -0.000000
vn 0.653227 -0.757162 0.000000
vn -0.653227 -0.655722 -0.378581
vn 0.653227 -0.655722 -0.378581
vn -0.653227 -0.378581 -0.655722
vn 0.653227 -0.378581 -0.655722
vn -1.000000 0.000000 0.000000
vn -0.653227 -0.000000 -0.757162
vn 0.653227 -0.000000 -0.757162
vn 1.000000 0.000000 0.000000
vn -0.653227 0.378581 -0.655722
vn 0.653227 0.378581 -0.655722
vn -0.653227 0.655722 -0.378581
vn 0.653227 0.655722 -0.378581
vn -0.653227 0.757162 0.000000
vn 0.653227 0.757162 -0.000000
vn -0.653227 0.655722 0.378581
vn 0.653227 0.655722 0.378581
vn -0.653227 0.378581 0.655722
vn 0.653227 0.378581 0.655722
vn -0.653227 0.000000 0.757162
vn 0.653227 0.000000 0.757162
vn -0.653227 -0.378581 0.655722
vn 0.653227 -0.378581 0.655722
vn -0.653227 -0.655722 0.378581
vn 0.653227 -0.655722 0.378581
vn -0.653227 -0.757162 -0.000000
vn 0.653227 -0.757162 -0.000000
vn -0.653227 -0.655722 -0.378581
vn 0.653227 -0.655722 -0.378581
vn -0.653227 -0.378581 -0.655722
vn 0.653227 -0.378581 -0.655722
f 2//2 4//4 1//1
f 5//5 2//2 1//1
f 1//1 4//4 3//3
f 3//3 5//5 1//1
f 2//2 8//8 4//4
f 6//6 2//2 5//5
f 6//6 8//8 2//2
f 4//4 8//8 3//3
f 7//7 5//5 3//3
f 3//3 8//8 7//7
f 7//7 6//6 5//5
f 8//8 6//6 7//7
f 10//10 12//12 9//9
f 13//13 10//10 9//9
f 9//9 12//12 11//11
f 11//11 13//13 9//9
f 10//10 16//16 12//12
f 14//14 10//10 13//13
f 14//14 16//16 10//10
f 12//12 16//16 11//11
f 15//15 13//13 11//11
f 11//11 16//16 15//15
f 15//15 14//14 13//13
f 16//16 14//14 15//15
f 18//18 20//20 17//17
f 21//21 18//18 17//17
f 17//17 20//20 19//19
f 19//19 21//21 17//17
f 18//18 24//24 20//20
f 22//22 18//18 21//21
f 22//22 24//24 18//18
f 20//20 24//24 19//19
f 23//23 21//21 19//19
f 19//19 24//24 23//23
f 23//23 22//22 21//21
f 24//24 22//22 23//23
f 26//26 28//28 25//25
f 29//29 26//26 25//25
f 25//25 28//28 27//27
f 27//27 29//29 25//25
f 26//26 32//32 28//28
f 30//30 26//26 29//29
f 30//30 32//32 26//26
f 28//28 32//32 27//27
f 31//31 29//29 27//27
f 27//27 32//32 31//31
f 31//31 30//30 29//29
f 32//32 30//30 31//31
f 34//34 36//36 33//33
f 37//37 34//34 33//33
f 33//33 36//36 35//35
f 35//35 37//37 33//33
f 34//34 40//40 36//36
f 38//38 34//34 37//37
f 38//38 40//40 34//34
f 36//36 40//40 35//35
f 39//39 37//37 35//35
f 35//35 40//40 39//39
f 39//39 38//38 37//37
f 40//40 38//38 39//39
f 42//42 44//44 41//41
f 45//45 42//42 41//41
f 41//41 44//44 43//43
f 43//43 45//45 41//41
f 42//42 48//48 44//44
f 46//46 42//42 45//45
f 46//46 48//48 42//42
f 44//44 48//48 43//43
f 47//47 45//45 43//43
f 43//43 48//48 47//47
f 47//47 46//46 45//45
f 48//48 46//46 47//47
f 50//50 52//52 49//49
f 53//53 50//50 49//49
f 49//49 52//52 51//51
f 51//51 53//53 49//49
f 50//50 56//56 52//52
f 54//54 50//50 53//53
f 54//54 56//56 50//50
f 52//52 56//56 51//51
f 55//55 53//53 51//51
f 51//51 56//56 55//55
f 55//55 54//54 53//53
f 56//56 54//54 55//55
f 58//58 60//60 57//57
f 61//61 58//58 57//57
f 57//57 60//60 59//59
f 59//59 61//61 57//57
f 58//58 64//64 60//60
f 62//62 58//58 61//61
f 62//62 64//64 58//58
f 60//60 64//64 59//59
f 63//63 61//61 59//59
f 59//59 64//64 63//63
f 63//63 62//62 61//61
f 64//64 62//62 63//63
f 66//66 68//68 65//65
f 69//69 66//66 65//65
f 65//65 68//68 67//67
f 67//67 69//69 65//65
f 66//66 72//72 68//68
f 70//70 66//66 69//69
f 70//70 72//72 66//66
f 68//68 72//72 67//67
f 71//71 69//69 67//67
f 67//67 72//72 71//71
f 71//71 70//70 69//69
f 72//72 70//70 71//71
f 74//74 76//76 73//73
f 77//77 74//74 73//73
f 73//73 76//76 75//75
f 75//75 77//77 73//73
f 74//74 80//80 76//76
f 78//78 74//74 77//77
f 78//78 80//80 74//74
f 76//76 80//80 75//75
f 79//79 77//77 75//75
f 75//75 80//80 79//79
f 79//79 78//78 77//77
f 80//80 78//78 79//79
f 82//82 84//84 81//81
f 85//85 82//82 81//81
f 81//81 84//84 83//83
f 83//83 85//85 81//81
f 82//82 88//88 84//84
f 86//86 82//82 85//85
f 86//86 88//88 82//82
f 84//84 88//88 83//83
f 87//87 85//85 83//83
f 83//83 88//88 87//87
f 87//87 86//86 85//85
f 88//88 86//86 87//87
f 90//90 89//89 93//93
f 90//90 93//93 91//91
f 91//91 93//93 94//94
f 91//91 94//94 92//92
f 93//93 89//89 95//95
f 93//93 95//95 94//94
f 94//94 95//95 96//96
f 94//94 96//96 92//92
f 95//95 89//89 97//97
f 95//95 97//97 96//96
f 96//96 97//97 98//98
f 96//96 98//98 92//92
f 97//97 89//89 99//99
f 97//97 99//99 98//98
f 98//98 99//99 100//100
f 98//98 100//100 92//92
f 99//99 89//89 101//101
f 99//99 101//101 100//100
f 100//100 101//101 102//102
f 100//100 102//102 92//92
f 101//101 89//89 103//103
f 101//101 103//103 102//102
f 102//102 103//103 104//104
f 102//102 104//104 92//92
f 103//103 89//89 105//105
f 103//103 105//105 104//104
f 104//104 105//105 106//106
f 104//104 106//106 92//92
f 105//105 89//89 107//107
f 105//105 107//107 106//106
f 106//106 107//107 108//108
f 106//106 108//108 92//92
f 107//107 89//89 109//109
f 107//107 109//109 108//108
f 108//108 109//109 110//110
f 108//108 110//110 92//92
f 109//109 89//89 111//111
f 109//109 111//111 110//110
f 110//110 111//111 112//112
f 110//110 112//112 92//92
f 111//111 89//89 113//113
f 111//111 113//113 112//112
f 112//112 113//113 114//114
f 112//112 114//114 92//92
f 113//113 89//89 90//90
f 113//113 90//90 114//114
f 114//114 90//90 91//91
f 114//114 91//91 92//92
f 116//116 115//115 119//119
f 116//116 119//119 117//117
f 117//117 119//119 120//120
f 117//117 120//120 118//118
f 119//119 115//115 121//121
f 119//119 121//121 120//120
f 120//120 121//121 122//122
f 120//120 122//122 118//118
f 121//121 115//115 123//123
f 121//121 123//123 122//122
f 122//122 123//123 124//124
f 122//122 124//124 118//118
f 123//123 115//115 125//125
f 123//123 125//125 124//124
f 124//124 125//125 126//126
f 124//124 126//126 118//118
f 125//125 115//115 127//127
f 125//125 127//127 126//126
f 126//126 127//127 128//128
f 126//126 128//128 118//118
f 127//127 115//115 129//129
f 127//127 129//129 128//128
f 128//128 129//129 130//130
f 128//128 130//130 118//118
f 129//129 115//115 131//131
f 129//129 131//131 130//130
f 130//130 131//131 132//132
f 130//130 132//132 118//118
f 131//131 115//115 133//133
f 131//131 133//133 132//132
f 132//132 133//133 134//134
f 132//132 134//134 118//118
f 133//133 115//115 135//135
f 133//133 135//135 134//134
f 134//134 135//135 136//136
f 134//134 136//136 118//118
f 135//135 115//115 137//137
f 135//135 137//137 136//136
f 136//136 137//137 138//138
f 136//136 138//138 118//118
f 137//137 115//115 139//139
f 137//137 139//139 138//138
f 138//138 139//139 140//140
f 138//138 140//140 118//118
f 139//139 115//115 116//116
f 139//139 116//116 140//140
f 140//140 116//116 117//117
f 140//140 117//117 118//118
