mtllib harvester.mtl
o harvester_cab
usemtl mat_harvester_body
v -0.800000 1.320000 0.600000
v 0.800000 1.320000 0.600000
v 0.920000 1.320000 1.720000
v -0.920000 1.320000 1.720000
v -0.720000 1.880000 0.740000
v 0.720000 1.880000 0.740000
v 0.820000 1.880000 1.580000
v -0.820000 1.880000 1.580000
v -0.540000 2.380000 0.900000
v 0.540000 2.380000 0.900000
v 0.640000 2.380000 1.380000
v -0.640000 2.380000 1.380000
v 0.000000 1.320000 1.160000
v 0.000000 2.380000 1.140000
v -0.575000 2.390000 0.960000
v -0.575000 2.390000 1.160000
v -0.575000 2.530000 0.960000
v -0.575000 2.530000 1.160000
v 0.575000 2.390000 0.960000
v 0.575000 2.390000 1.160000
v 0.575000 2.530000 0.960000
v 0.575000 2.530000 1.160000
v -0.855000 1.645000 1.040000
v -0.855000 1.645000 1.320000
v -0.855000 1.995000 1.040000
v -0.855000 1.995000 1.320000
v -0.505000 1.645000 1.040000
v -0.505000 1.645000 1.320000
v -0.505000 1.995000 1.040000
v -0.505000 1.995000 1.320000
v 0.505000 1.645000 1.040000
v 0.505000 1.645000 1.320000
v 0.505000 1.995000 1.040000
v 0.505000 1.995000 1.320000
v 0.855000 1.645000 1.040000
v 0.855000 1.645000 1.320000
v 0.855000 1.995000 1.040000
v 0.855000 1.995000 1.320000
v -0.375000 2.500000 1.010000
v -0.375000 2.500000 1.430000
v -0.375000 2.580000 1.010000
v -0.375000 2.580000 1.430000
v 0.375000 2.500000 1.010000
v 0.375000 2.500000 1.430000
v 0.375000 2.580000 1.010000
v 0.375000 2.580000 1.430000
v 0.000000 3.030000 1.120000
v 0.100000 3.030000 1.120000
v 0.100000 2.530000 1.120000
v 0.000000 2.530000 1.120000
v 0.080902 3.030000 1.178779
v 0.080902 2.530000 1.178779
v 0.030902 3.030000 1.215106
v 0.030902 2.530000 1.215106
v -0.030902 3.030000 1.215106
v -0.030902 2.530000 1.215106
v -0.080902 3.030000 1.178779
v -0.080902 2.530000 1.178779
v -0.100000 3.030000 1.120000
v -0.100000 2.530000 1.120000
v -0.080902 3.030000 1.061221
v -0.080902 2.530000 1.061221
v -0.030902 3.030000 1.024894
v -0.030902 2.530000 1.024894
v 0.030902 3.030000 1.024894
v 0.030902 2.530000 1.024894
v 0.080902 3.030000 1.061221
v 0.080902 2.530000 1.061221
vn -0.572245 -0.480206 -0.664784
vn 0.569889 -0.481144 -0.666129
vn 0.643926 -0.463651 0.608595
vn -0.646089 -0.462690 0.607031
vn -0.643643 0.338207 -0.686542
vn 0.638823 0.330515 -0.694741
vn 0.703587 0.366781 0.608636
vn -0.707025 0.373551 0.600479
vn -0.420959 0.743394 -0.519768
vn 0.397845 0.749776 -0.528730
vn 0.514953 0.753574 0.408594
vn -0.540949 0.743939 0.392339
vn 0.000000 -1.000000 0.000000
vn 0.000000 1.000000 0.000000
vn -0.577350 -0.577350 -0.577350
vn -0.577350 -0.577350 0.577350
vn -0.577350 0.577350 -0.577350
vn -0.577350 0.577350 0.577350
vn 0.577350 -0.577350 -0.577350
vn 0.577350 -0.577350 0.577350
vn 0.577350 0.577350 -0.577350
vn 0.577350 0.577350 0.577350
vn -0.577350 -0.577350 -0.577350
vn -0.577350 -0.577350 0.577350
vn -0.577350 0.577350 -0.577350
vn -0.577350 0.577350 0.577350
vn 0.577350 -0.577350 -0.577350
vn 0.577350 -0.577350 0.577350
vn 0.577350 0.577350 -0.577350
vn 0.577350 0.577350 0.577350
vn -0.577350 -0.577350 -0.577350
vn -0.577350 -0.577350 0.577350
vn -0.577350 0.577350 -0.577350
vn -0.577350 0.577350 0.577350
vn 0.577350 -0.577350 -0.577350
vn 0.577350 -0.577350 0.577350
vn 0.577350 0.577350 -0.577350
vn 0.577350 0.577350 0.577350
vn -0.577350 -0.577350 -0.577350
vn -0.577350 -0.577350 0.577350
vn -0.577350 0.577350 -0.577350
vn -0.577350 0.577350 0.577350
vn 0.577350 -0.577350 -0.577350
vn 0.577350 -0.577350 0.577350
vn 0.577350 0.577350 -0.577350
vn 0.577350 0.577350 0.577350
vn 0.000000 1.000000 0.000000
vn 0.765264 0.643717 0.000000
vn 0.765264 -0.643717 -0.000000
vn 0.000000 -1.000000 0.000000
vn 0.619111 0.643717 0.449811
vn 0.619111 -0.643717 0.449811
vn 0.236480 0.643717 0.727809
vn 0.236480 -0.643717 0.727809
vn -0.236480 0.643717 0.727809
vn -0.236480 -0.643717 0.727809
vn -0.619111 0.643717 0.449811
vn -0.619111 -0.643717 0.449811
vn -0.765264 0.643717 0.000000
vn -0.765264 -0.643717 -0.000000
vn -0.619111 0.643717 -0.449811
vn -0.619111 -0.643717 -0.449811
vn -0.236480 0.643717 -0.727809
vn -0.236480 -0.643717 -0.727809
vn 0.236480 0.643717 -0.727809
vn 0.236480 -0.643717 -0.727809
vn 0.619111 0.643717 -0.449811
vn 0.619111 -0.643717 -0.449811
f 6//6 2//2 1//1
f 5//5 6//6 1//1
f 7//7 3//3 2//2
f 6//6 7//7 2//2
f 8//8 4//4 3//3
f 7//7 8//8 3//3
f 5//5 1//1 4//4
f 8//8 5//5 4//4
f 10//10 6//6 5//5
f 9//9 10//10 5//5
f 11//11 7//7 6//6
f 10//10 11//11 6//6
f 12//12 8//8 7//7
f 11//11 12//12 7//7
f 9//9 5//5 8//8
f 12//12 9//9 8//8
f 1//1 2//2 13//13
f 10//10 9//9 14//14
f 2//2 3//3 13//13
f 11//11 10//10 14//14
f 3//3 4//4 13//13
f 12//12 11//11 14//14
f 4//4 1//1 13//13
f 9//9 12//12 14//14
f 16//16 18//18 15//15
f 19//19 16//16 15//15
f 15//15 18//18 17//17
f 17//17 19//19 15//15
f 16//16 22//22 18//18
f 20//20 16//16 19//19
f 20//20 22//22 16//16
f 18//18 22//22 17//17
f 21//21 19//19 17//17
f 17//17 22//22 21//21
f 21//21 20//20 19//19
f 22//22 20//20 21//21
f 24//24 26//26 23//23
f 27//27 24//24 23//23
f 23//23 26//26 25//25
f 25//25 27//27 23//23
f 24//24 30//30 26//26
f 28//28 24//24 27//27
f 28//28 30//30 24//24
f 26//26 30//30 25//25
f 29//29 27//27 25//25
f 25//25 30//30 29//29
f 29//29 28//28 27//27
f 30//30 28//28 29//29
f 32//32 34//34 31//31
f 35//35 32//32 31//31
f 31//31 34//34 33//33
f 33//33 35//35 31//31
f 32//32 38//38 34//34
f 36//36 32//32 35//35
f 36//36 38//38 32//32
f 34//34 38//38 33//33
f 37//37 35//35 33//33
f 33//33 38//38 37//37
f 37//37 36//36 35//35
f 38//38 36//36 37//37
f 40//40 42//42 39//39
f 43//43 40//40 39//39
f 39//39 42//42 41//41
f 41//41 43//43 39//39
f 40//40 46//46 42//42
f 44//44 40//40 43//43
f 44//44 46//46 40//40
f 42//42 46//46 41//41
f 45//45 43//43 41//41
f 41//41 46//46 45//45
f 45//45 44//44 43//43
f 46//46 44//44 45//45
f 48//48 47//47 51//51
f 48//48 51//51 49//49
f 49//49 51//51 52//52
f 49//49 52//52 50//50
f 51//51 47//47 53//53
f 51//51 53//53 52//52
f 52//52 53//53 54//54
f 52//52 54//54 50//50
f 53//53 47//47 55//55
f 53//53 55//55 54//54
f 54//54 55//55 56//56
f 54//54 56//56 50//50
f 55//55 47//47 57//57
f 55//55 57//57 56//56
f 56//56 57//57 58//58
f 56//56 58//58 50//50
f 57//57 47//47 59//59
f 57//57 59//59 58//58
f 58//58 59//59 60//60
f 58//58 60//60 50//50
f 59//59 47//47 61//61
f 59//59 61//61 60//60
f 60//60 61//61 62//62
f 60//60 62//62 50//50
f 61//61 47//47 63//63
f 61//61 63//63 62//62
f 62//62 63//63 64//64
f 62//62 64//64 50//50
f 63//63 47//47 65//65
f 63//63 65//65 64//64
f 64//64 65//65 66//66
f 64//64 66//66 50//50
f 65//65 47//47 67//67
f 65//65 67//67 66//66
f 66//66 67//67 68//68
f 66//66 68//68 50//50
f 67//67 47//47 48//48
f 67//67 48//48 68//68
f 68//68 48//48 49//49
f 68//68 49//49 50//50
