mtllib apc.mtl
o apc_turret
usemtl mat_apc_body
v 0.000000 2.585200 0.545203
v 0.420000 2.585200 0.545203
v 0.420000 2.445200 0.545203
v 0.000000 2.445200 0.545203
v 0.394671 2.585200 0.688851
v 0.394671 2.445200 0.688851
v 0.321739 2.585200 0.815174
v 0.321739 2.445200 0.815174
v 0.210000 2.585200 0.908933
v 0.210000 2.445200 0.908933
v 0.072932 2.585200 0.958822
v 0.072932 2.445200 0.958822
v -0.072932 2.585200 0.958822
v -0.072932 2.445200 0.958822
v -0.210000 2.585200 0.908933
v -0.210000 2.445200 0.908933
v -0.321739 2.585200 0.815174
v -0.321739 2.445200 0.815174
v -0.394671 2.585200 0.688851
v -0.394671 2.445200 0.688851
v -0.420000 2.585200 0.545203
v -0.420000 2.445200 0.545203
v -0.394671 2.585200 0.401554
v -0.394671 2.445200 0.401554
v -0.321739 2.585200 0.275232
v -0.321739 2.445200 0.275232
v -0.210000 2.585200 0.181472
v -0.210000 2.445200 0.181472
v -0.072932 2.585200 0.131583
v -0.072932 2.445200 0.131583
v 0.072932 2.585200 0.131583
v 0.072932 2.445200 0.131583
v 0.210000 2.585200 0.181472
v 0.210000 2.445200 0.181472
v 0.321739 2.585200 0.275232
v 0.321739 2.445200 0.275232
v 0.394671 2.585200 0.401554
v 0.394671 2.445200 0.401554
v -0.300000 2.555200 0.295203
v 0.300000 2.555200 0.295203
v 0.380000 2.555200 0.375203
v 0.380000 2.555200 0.795203
v 0.300000 2.555200 0.875203
v -0.300000 2.555200 0.875203
v -0.380000 2.555200 0.795203
v -0.380000 2.555200 0.375203
v -0.300000 2.835200 0.295203
v 0.300000 2.835200 0.295203
v 0.380000 2.835200 0.375203
v 0.380000 2.835200 0.795203
v 0.300000 2.835200 0.875203
v -0.300000 2.835200 0.875203
v -0.380000 2.835200 0.795203
v -0.380000 2.835200 0.375203
v 0.000000 2.555200 0.585203
v 0.000000 2.835200 0.585203
v -0.230000 2.705200 0.685203
v -0.230000 2.705200 0.985203
v -0.230000 2.905200 0.685203
v -0.230000 2.905200 0.985203
v 0.230000 2.705200 0.685203
v 0.230000 2.705200 0.985203
v 0.230000 2.905200 0.685203
v 0.230000 2.905200 0.985203
v 0.200000 2.625200 0.315203
v 0.200000 2.625200 0.535203
v 0.200000 2.765200 0.315203
v 0.200000 2.765200 0.535203
v 0.360000 2.625200 0.315203
v 0.360000 2.625200 0.535203
v 0.360000 2.765200 0.315203
v 0.360000 2.765200 0.535203
vn 0.000000 1.000000 0.000000
vn 0.742333 0.670031 -0.000000
vn 0.742333 -0.670031 -0.000000
vn 0.000000 -1.000000 0.000000
vn 0.697565 0.670031 0.253893
vn 0.697565 -0.670031 0.253893
vn 0.568660 0.670031 0.477163
vn 0.568660 -0.670031 0.477163
vn 0.371167 0.670031 0.642879
vn 0.371167 -0.670031 0.642879
vn 0.128905 0.670031 0.731055
vn 0.128905 -0.670031 0.731055
vn -0.128905 0.670031 0.731055
vn -0.128905 -0.670031 0.731055
vn -0.371167 0.670031 0.642879
vn -0.371167 -0.670031 0.642879
vn -0.568660 0.670031 0.477163
vn -0.568660 -0.670031 0.477163
vn -0.697565 0.670031 0.253893
vn -0.697565 -0.670031 0.253893
vn -0.742333 0.670031 0.000000
vn -0.742333 -0.670031 0.000000
vn -0.697565 0.670031 -0.253893
vn -0.697565 -0.670031 -0.253893
vn -0.568660 0.670031 -0.477163
vn -0.568660 -0.670031 -0.477163
vn -0.371167 0.670031 -0.642879
vn -0.371167 -0.670031 -0.642879
vn -0.128905 0.670031 -0.731055
vn -0.128905 -0.670031 -0.731055
vn 0.128905 0.670031 -0.731055
vn 0.128905 -0.670031 -0.731055
vn 0.371167 0.670031 -0.642879
vn 0.371167 -0.670031 -0.642879
vn 0.568660 0.670031 -0.477163
vn 0.568660 -0.670031 -0.477163
vn 0.697565 0.670031 -0.253893
vn 0.697565 -0.670031 -0.253893
vn -0.297109 -0.630262 -0.717284
vn 0.297109 -0.630262 -0.717284
vn 0.717284 -0.630262 -0.297109
vn 0.717284 -0.630262 0.297109
vn 0.297109 -0.630262 0.717284
vn -0.297109 -0.630262 0.717284
vn -0.717284 -0.630262 0.297109
vn -0.717284 -0.630262 -0.297109
vn -0.297109 0.630262 -0.717284
vn 0.297109 0.630262 -0.717284
vn 0.717284 0.630262 -0.297109
vn 0.717284 0.630262 0.297109
vn 0.297109 0.630262 0.717284
vn -0.297109 0.630262 0.717284
vn -0.717284 0.630262 0.297109
vn -0.717284 0.630262 -0.297109
vn 0.000000 -1.000000 0.000000
vn 0.000000 1.000000 0.000000
vn -0.577350 -0.577350 -0.577350
vn -0.577350 -0.577350 0.577350
vn -0.577350 0.577350 -0.577350
vn -0.577350 0.577350 0.577350
vn 0.577350 -0.577350 -0.577350
vn 0.577350 -0.577350 0.577350
vn 0.577350 0.577350 -0.577350
vn 0.577350 0.577350 0.577350
vn -0.577350 -0.577350 -0.577350
vn -0.577350 -0.577350 0.577350
vn -0.577350 0.577350 -0.577350
vn -0.577350 0.577350 0.577350
vn 0.577350 -0.577350 -0.577350
vn 0.577350 -0.577350 0.577350
vn 0.577350 0.577350 -0.577350
vn 0.577350 0.577350 0.577350
f 2//2 1//1 5//5
f 2//2 5//5 3//3
f 3//3 5//5 6//6
f 3//3 6//6 4//4
f 5//5 1//1 7//7
f 5//5 7//7 6//6
f 6//6 7//7 8//8
f 6//6 8//8 4//4
f 7//7 1//1 9//9
f 7//7 9//9 8//8
f 8//8 9//9 10//10
f 8//8 10//10 4//4
f 9//9 1//1 11//11
f 9//9 11//11 10//10
f 10//10 11//11 12//12
f 10//10 12//12 4//4
f 11//11 1//1 13//13
f 11//11 13//13 12//12
f 12//12 13//13 14//14
f 12//12 14//14 4//4
f 13//13 1//1 15//15
f 13//13 15//15 14//14
f 14//14 15//15 16//16
f 14//14 16//16 4//4
f 15//15 1//1 17//17
f 15//15 17//17 16//16
f 16//16 17//17 18//18
f 16//16 18//18 4//4
f 17//17 1//1 19//19
f 17//17 19//19 18//18
f 18//18 19//19 20//20
f 18//18 20//20 4//4
f 19//19 1//1 21//21
f 19//19 21//21 20//20
f 20//20 21//21 22//22
f 20//20 22//22 4//4
f 21//21 1//1 23//23
f 21//21 23//23 22//22
f 22//22 23//23 24//24
f 22//22 24//24 4//4
f 23//23 1//1 25//25
f 23//23 25//25 24//24
f 24//24 25//25 26//26
f 24//24 26//26 4//4
f 25//25 1//1 27//27
f 25//25 27//27 26//26
f 26//26 27//27 28//28
f 26//26 28//28 4//4
f 27//27 1//1 29//29
f 27//27 29//29 28//28
f 28//28 29//29 30//30
f 28//28 30//30 4//4
f 29//29 1//1 31//31
f 29//29 31//31 30//30
f 30//30 31//31 32//32
f 30//30 32//32 4//4
f 31//31 1//1 33//33
f 31//31 33//33 32//32
f 32//32 33//33 34//34
f 32//32 34//34 4//4
f 33//33 1//1 35//35
f 33//33 35//35 34//34
f 34//34 35//35 36//36
f 34//34 36//36 4//4
f 35//35 1//1 37//37
f 35//35 37//37 36//36
f 36//36 37//37 38//38
f 36//36 38//38 4//4
f 37//37 1//1 2//2
f 37//37 2//2 38//38
f 38//38 2//2 3//3
f 38//38 3//3 4//4
f 48//48 40//40 39//39
f 47//47 48//48 39//39
f 49//49 41//41 40//40
f 48//48 49//49 40//40
f 50//50 42//42 41//41
f 49//49 50//50 41//41
f 51//51 43//43 42//42
f 50//50 51//51 42//42
f 52//52 44//44 43//43
f 51//51 52//52 43//43
f 53//53 45//45 44//44
f 52//52 53//53 44//44
f 54//54 46//46 45//45
f 53//53 54//54 45//45
f 47//47 39//39 46//46
f 54//54 47//47 46//46
f 39//39 40//40 55//55
f 48//48 47//47 56//56
f 40//40 41//41 55//55
f 49//49 48//48 56//56
f 41//41 42//42 55//55
f 50//50 49//49 56//56
f 42//42 43//43 55//55
f 51//51 50//50 56//56
f 43//43 44//44 55//55
f 52//52 51//51 56//56
f 44//44 45//45 55//55
f 53//53 52//52 56//56
f 45//45 46//46 55//55
f 54//54 53//53 56//56
f 46//46 39//39 55//55
f 47//47 54//54 56//56
f 58//58 60//60 57//57
f 61//61 58//58 57//57
f 57//57 60//60 59//59
f 59//59 61//61 57//57
f 58//58 64//64 60//60
f 62//62 58//58 61//61
f 62//62 64//64 58//58
f 60//60 64//64 59//59
f 63//63 61//61 59//59
f 59//59 64//64 63//63
f 63//63 62//62 61//61
f 64//64 62//62 63//63
f 66//66 68//68 65//65
f 69//69 66//66 65//65
f 65//65 68//68 67//67
f 67//67 69//69 65//65
f 66//66 72//72 68//68
f 70//70 66//66 69//69
f 70//70 72//72 66//66
f 68//68 72//72 67//67
f 71//71 69//69 67//67
f 67//67 72//72 71//71
f 71//71 70//70 69//69
f 72//72 70//70 71//71
