mtllib apc.mtl
o apc_rear_ramp
usemtl mat_apc_metal
v -1.140000 0.813415 -3.250203
v -1.140000 0.698808 -2.600230
v -1.140000 0.931592 -3.229365
v -1.140000 0.816985 -2.579392
v 1.140000 0.813415 -3.250203
v 1.140000 0.698808 -2.600230
v 1.140000 0.931592 -3.229365
v 1.140000 0.816985 -2.579392
v -0.900000 1.108649 -3.207120
v -0.900000 1.042663 -2.832893
v -0.900000 1.167737 -3.196701
v -0.900000 1.101751 -2.822474
v 0.900000 1.108649 -3.207120
v 0.900000 1.042663 -2.832893
v 0.900000 1.167737 -3.196701
v 0.900000 1.101751 -2.822474
vn -0.577350 -0.468323 -0.668835
vn -0.577350 -0.668835 0.468323
vn -0.577350 0.668835 -0.468323
vn -0.577350 0.468323 0.668835
vn 0.577350 -0.468323 -0.668835
vn 0.577350 -0.668835 0.468323
vn 0.577350 0.668835 -0.468323
vn 0.577350 0.468323 0.668835
vn -0.577350 -0.468323 -0.668835
vn -0.577350 -0.668835 0.468323
vn -0.577350 0.668835 -0.468323
vn -0.577350 0.468323 0.668835
vn 0.577350 -0.468323 -0.668835
vn 0.577350 -0.668835 0.468323
vn 0.577350 0.668835 -0.468323
vn 0.577350 0.468323 0.668835
f 2//2 4//4 1//1
f 5//5 2//2 1//1
f 1//1 4//4 3//3
f 3//3 5//5 1//1
f 2//2 8//8 4//4
f 6//6 2//2 5//5
f 6//6 8//8 2//2
f 4//4 8//8 3//3
f 7//7 5//5 3//3
f 3//3 8//8 7//7
f 7//7 6//6 5//5
f 8//8 6//6 7//7
f 10//10 12//12 9//9
f 13//13 10//10 9//9
f 9//9 12//12 11//11
f 11//11 13//13 9//9
f 10//10 16//16 12//12
f 14//14 10//10 13//13
f 14//14 16//16 10//10
f 12//12 16//16 11//11
f 15//15 13//13 11//11
f 11//11 16//16 15//15
f 15//15 14//14 13//13
f 16//16 14//14 15//15
