mtllib scout_rover.mtl
o scout_rover_lod1
usemtl mat_scout_rover_body
v -1.250000 0.180800 -2.130000
v 1.250000 0.180800 -2.130000
v 1.450000 0.180800 -1.930000
v 1.450000 0.180800 1.770000
v 1.250000 0.180800 1.970000
v -1.250000 0.180800 1.970000
v -1.450000 0.180800 1.770000
v -1.450000 0.180800 -1.930000
v -1.250000 1.380800 -2.130000
v 1.250000 1.380800 -2.130000
v 1.450000 1.380800 -1.930000
v 1.450000 1.380800 1.770000
v 1.250000 1.380800 1.970000
v -1.250000 1.380800 1.970000
v -1.450000 1.380800 1.770000
v -1.450000 1.380800 -1.930000
v 0.000000 0.180800 -0.080000
v 0.000000 1.380800 -0.080000
v -0.950000 1.205800 -1.180000
v -0.950000 1.205800 0.620000
v -0.950000 1.955800 -1.180000
v -0.950000 1.955800 0.620000
v 0.950000 1.205800 -1.180000
v 0.950000 1.205800 0.620000
v 0.950000 1.955800 -1.180000
v 0.950000 1.955800 0.620000
v -1.475000 0.580800 1.070000
v -1.475000 0.580800 0.620000
v -1.225000 0.580800 0.620000
v -1.225000 0.580800 1.070000
v -1.475000 0.753008 0.654254
v -1.225000 0.753008 0.654254
v -1.475000 0.898998 0.751802
v -1.225000 0.898998 0.751802
v -1.475000 0.996546 0.897792
v -1.225000 0.996546 0.897792
v -1.475000 1.030800 1.070000
v -1.225000 1.030800 1.070000
v -1.475000 0.996546 1.242208
v -1.225000 0.996546 1.242208
v -1.475000 0.898998 1.388198
v -1.225000 0.898998 1.388198
v -1.475000 0.753008 1.485746
v -1.225000 0.753008 1.485746
v -1.475000 0.580800 1.520000
v -1.225000 0.580800 1.520000
v -1.475000 0.408592 1.485746
v -1.225000 0.408592 1.485746
v -1.475000 0.262602 1.388198
v -1.225000 0.262602 1.388198
v -1.475000 0.165054 1.242208
v -1.225000 0.165054 1.242208
v -1.475000 0.130800 1.070000
v -1.225000 0.130800 1.070000
v -1.475000 0.165054 0.897792
v -1.225000 0.165054 0.897792
v -1.475000 0.262602 0.751802
v -1.225000 0.262602 0.751802
v -1.475000 0.408592 0.654254
v -1.225000 0.408592 0.654254
v 1.225000 0.580800 1.070000
v 1.225000 0.580800 0.620000
v 1.475000 0.580800 0.620000
v 1.475000 0.580800 1.070000
v 1.225000 0.753008 0.654254
v 1.475000 0.753008 0.654254
v 1.225000 0.898998 0.751802
v 1.475000 0.898998 0.751802
v 1.225000 0.996546 0.897792
v 1.475000 0.996546 0.897792
v 1.225000 1.030800 1.070000
v 1.475000 1.030800 1.070000
v 1.225000 0.996546 1.242208
v 1.475000 0.996546 1.242208
v 1.225000 0.898998 1.388198
v 1.475000 0.898998 1.388198
v 1.225000 0.753008 1.485746
v 1.475000 0.753008 1.485746
v 1.225000 0.580800 1.520000
v 1.475000 0.580800 1.520000
v 1.225000 0.408592 1.485746
v 1.475000 0.408592 1.485746
v 1.225000 0.262602 1.388198
v 1.475000 0.262602 1.388198
v 1.225000 0.165054 1.242208
v 1.475000 0.165054 1.242208
v 1.225000 0.130800 1.070000
v 1.475000 0.130800 1.070000
v 1.225000 0.165054 0.897792
v 1.475000 0.165054 0.897792
v 1.225000 0.262602 0.751802
v 1.475000 0.262602 0.751802
v 1.225000 0.408592 0.654254
v 1.475000 0.408592 0.654254
v -1.475000 0.580800 -1.430000
v -1.475000 0.580800 -1.880000
v -1.225000 0.580800 -1.880000
v -1.225000 0.580800 -1.430000
v -1.475000 0.753008 -1.845746
v -1.225000 0.753008 -1.845746
v -1.475000 0.898998 -1.748198
v -1.225000 0.898998 -1.748198
v -1.475000 0.996546 -1.602208
v -1.225000 0.996546 -1.602208
v -1.475000 1.030800 -1.430000
v -1.225000 1.030800 -1.430000
v -1.475000 0.996546 -1.257792
v -1.225000 0.996546 -1.257792
v -1.475000 0.898998 -1.111802
v -1.225000 0.898998 -1.111802
v -1.475000 0.753008 -1.014254
v -1.225000 0.753008 -1.014254
v -1.475000 0.580800 -0.980000
v -1.225000 0.580800 -0.980000
v -1.475000 0.408592 -1.014254
v -1.225000 0.408592 -1.014254
v -1.475000 0.262602 -1.111802
v -1.225000 0.262602 -1.111802
v -1.475000 0.165054 -1.257792
v -1.225000 0.165054 -1.257792
v -1.475000 0.130800 -1.430000
v -1.225000 0.130800 -1.430000
v -1.475000 0.165054 -1.602208
v -1.225000 0.165054 -1.602208
v -1.475000 0.262602 -1.748198
v -1.225000 0.262602 -1.748198
v -1.475000 0.408592 -1.845746
v -1.225000 0.408592 -1.845746
v 1.225000 0.580800 -1.430000
v 1.225000 0.580800 -1.880000
v 1.475000 0.580800 -1.880000
v 1.475000 0.580800 -1.430000
v 1.225000 0.753008 -1.845746
v 1.475000 0.753008 -1.845746
v 1.225000 0.898998 -1.748198
v 1.475000 0.898998 -1.748198
v 1.225000 0.996546 -1.602208
v 1.475000 0.996546 -1.602208
v 1.225000 1.030800 -1.430000
v 1.475000 1.030800 -1.430000
v 1.225000 0.996546 -1.257792
v 1.475000 0.996546 -1.257792
v 1.225000 0.898998 -1.111802
v 1.475000 0.898998 -1.111802
v 1.225000 0.753008 -1.014254
v 1.475000 0.753008 -1.014254
v 1.225000 0.580800 -0.980000
v 1.475000 0.580800 -0.980000
v 1.225000 0.408592 -1.014254
v 1.475000 0.408592 -1.014254
v 1.225000 0.262602 -1.111802
v 1.475000 0.262602 -1.111802
v 1.225000 0.165054 -1.257792
v 1.475000 0.165054 -1.257792
v 1.225000 0.130800 -1.430000
v 1.475000 0.130800 -1.430000
v 1.225000 0.165054 -1.602208
v 1.475000 0.165054 -1.602208
v 1.225000 0.262602 -1.748198
v 1.475000 0.262602 -1.748198
v 1.225000 0.408592 -1.845746
v 1.475000 0.408592 -1.845746
vn -0.297109 -0.630262 -0.717284
vn 0.297109 -0.630262 -0.717284
vn 0.717284 -0.630262 -0.297109
vn 0.717284 -0.630262 0.297109
vn 0.297109 -0.630262 0.717284
vn -0.297109 -0.630262 0.717284
vn -0.717284 -0.630262 0.297109
vn -0.717284 -0.630262 -0.297109
vn -0.297109 0.630262 -0.717284
vn 0.297109 0.630262 -0.717284
vn 0.717284 0.630262 -0.297109
vn 0.717284 0.630262 0.297109
vn 0.297109 0.630262 0.717284
vn -0.297109 0.630262 0.717284
vn -0.717284 0.630262 0.297109
vn -0.717284 0.630262 -0.297109
vn 0.000000 -1.000000 0.000000
vn 0.000000 1.000000 0.000000
vn -0.577350 -0.577350 -0.577350
vn -0.577350 -0.577350 0.577350
vn -0.577350 0.577350 -0.577350
vn -0.577350 0.577350 0.577350
vn 0.577350 -0.577350 -0.577350
vn 0.577350 -0.577350 0.577350
vn 0.577350 0.577350 -0.577350
vn 0.577350 0.577350 0.577350
vn -1.000000 0.000000 0.000000
vn -0.665719 -0.000000 -0.746203
vn 0.665719 -0.000000 -0.746203
vn 1.000000 0.000000 0.000000
vn -0.665719 0.285559 -0.689401
vn 0.665719 0.285559 -0.689401
vn -0.665719 0.527645 -0.527645
vn 0.665719 0.527645 -0.527645
vn -0.665719 0.689401 -0.285559
vn 0.665719 0.689401 -0.285559
vn -0.665719 0.746203 -0.000000
vn 0.665719 0.746203 0.000000
vn -0.665719 0.689401 0.285559
vn 0.665719 0.689401 0.285559
vn -0.665719 0.527645 0.527645
vn 0.665719 0.527645 0.527645
vn -0.665719 0.285559 0.689401
vn 0.665719 0.285559 0.689401
vn -0.665719 0.000000 0.746203
vn 0.665719 0.000000 0.746203
vn -0.665719 -0.285559 0.689401
vn 0.665719 -0.285559 0.689401
vn -0.665719 -0.527645 0.527645
vn 0.665719 -0.527645 0.527645
vn -0.665719 -0.689401 0.285559
vn 0.665719 -0.689401 0.285559
vn -0.665719 -0.746203 -0.000000
vn 0.665719 -0.746203 -0.000000
vn -0.665719 -0.689401 -0.285559
vn 0.665719 -0.689401 -0.285559
vn -0.665719 -0.527645 -0.527645
vn 0.665719 -0.527645 -0.527645
vn -0.665719 -0.285559 -0.689401
vn 0.665719 -0.285559 -0.689401
vn -1.000000 0.000000 0.000000
vn -0.665719 -0.000000 -0.746203
vn 0.665719 -0.000000 -0.746203
vn 1.000000 0.000000 0.000000
vn -0.665719 0.285559 -0.689401
vn 0.665719 0.285559 -0.689401
vn -0.665719 0.527645 -0.527645
vn 0.665719 0.527645 -0.527645
vn -0.665719 0.689401 -0.285559
vn 0.665719 0.689401 -0.285559
vn -0.665719 0.746203 -0.000000
vn 0.665719 0.746203 0.000000
vn -0.665719 0.689401 0.285559
vn 0.665719 0.689401 0.285559
vn -0.665719 0.527645 0.527645
vn 0.665719 0.527645 0.527645
vn -0.665719 0.285559 0.689401
vn 0.665719 0.285559 0.689401
vn -0.665719 0.000000 0.746203
vn 0.665719 0.000000 0.746203
vn -0.665719 -0.285559 0.689401
vn 0.665719 -0.285559 0.689401
vn -0.665719 -0.527645 0.527645
vn 0.665719 -0.527645 0.527645
vn -0.665719 -0.689401 0.285559
vn 0.665719 -0.689401 0.285559
vn -0.665719 -0.746203 -0.000000
vn 0.665719 -0.746203 -0.000000
vn -0.665719 -0.689401 -0.285559
vn 0.665719 -0.689401 -0.285559
vn -0.665719 -0.527645 -0.527645
vn 0.665719 -0.527645 -0.527645
vn -0.665719 -0.285559 -0.689401
vn 0.665719 -0.285559 -0.689401
vn -1.000000 0.000000 0.000000
vn -0.665719 0.000000 -0.746203
vn 0.665719 0.000000 -0.746203
vn 1.000000 0.000000 0.000000
vn -0.665719 0.285559 -0.689401
vn 0.665719 0.285559 -0.689401
vn -0.665719 0.527645 -0.527645
vn 0.665719 0.527645 -0.527645
vn -0.665719 0.689401 -0.285559
vn 0.665719 0.689401 -0.285559
vn -0.665719 0.746203 -0.000000
vn 0.665719 0.746203 0.000000
vn -0.665719 0.689401 0.285559
vn 0.665719 0.689401 0.285559
vn -0.665719 0.527645 0.527645
vn 0.665719 0.527645 0.527645
vn -0.665719 0.285559 0.689401
vn 0.665719 0.285559 0.689401
vn -0.665719 0.000000 0.746203
vn 0.665719 0.000000 0.746203
vn -0.665719 -0.285559 0.689401
vn 0.665719 -0.285559 0.689401
vn -0.665719 -0.527645 0.527645
vn 0.665719 -0.527645 0.527645
vn -0.665719 -0.689401 0.285559
vn 0.665719 -0.689401 0.285559
vn -0.665719 -0.746203 -0.000000
vn 0.665719 -0.746203 -0.000000
vn -0.665719 -0.689401 -0.285559
vn 0.665719 -0.689401 -0.285559
vn -0.665719 -0.527645 -0.527645
vn 0.665719 -0.527645 -0.527645
vn -0.665719 -0.285559 -0.689401
vn 0.665719 -0.285559 -0.689401
vn -1.000000 0.000000 0.000000
vn -0.665719 0.000000 -0.746203
vn 0.665719 0.000000 -0.746203
vn 1.000000 0.000000 0.000000
vn -0.665719 0.285559 -0.689401
vn 0.665719 0.285559 -0.689401
vn -0.665719 0.527645 -0.527645
vn 0.665719 0.527645 -0.527645
vn -0.665719 0.689401 -0.285559
vn 0.665719 0.689401 -0.285559
vn -0.665719 0.746203 -0.000000
vn 0.665719 0.746203 0.000000
vn -0.665719 0.689401 0.285559
vn 0.665719 0.689401 0.285559
vn -0.665719 0.527645 0.527645
vn 0.665719 0.527645 0.527645
vn -0.665719 0.285559 0.689401
vn 0.665719 0.285559 0.689401
vn -0.665719 0.000000 0.746203
vn 0.665719 0.000000 0.746203
vn -0.665719 -0.285559 0.689401
vn 0.665719 -0.285559 0.689401
vn -0.665719 -0.527645 0.527645
vn 0.665719 -0.527645 0.527645
vn -0.665719 -0.689401 0.285559
vn 0.665719 -0.689401 0.285559
vn -0.665719 -0.746203 -0.000000
vn 0.665719 -0.746203 -0.000000
vn -0.665719 -0.689401 -0.285559
vn 0.665719 -0.689401 -0.285559
vn -0.665719 -0.527645 -0.527645
vn 0.665719 -0.527645 -0.527645
vn -0.665719 -0.285559 -0.689401
vn 0.665719 -0.285559 -0.689401
f 10//10 2//2 1//1
f 9//9 10//10 1//1
f 11//11 3//3 2//2
f 10//10 11//11 2//2
f 12//12 4//4 3//3
f 11//11 12//12 3//3
f 13//13 5//5 4//4
f 12//12 13//13 4//4
f 14//14 6//6 5//5
f 13//13 14//14 5//5
f 15//15 7//7 6//6
f 14//14 15//15 6//6
f 16//16 8//8 7//7
f 15//15 16//16 7//7
f 9//9 1//1 8//8
f 16//16 9//9 8//8
f 1//1 2//2 17//17
f 10//10 9//9 18//18
f 2//2 3//3 17//17
f 11//11 10//10 18//18
f 3//3 4//4 17//17
f 12//12 11//11 18//18
f 4//4 5//5 17//17
f 13//13 12//12 18//18
f 5//5 6//6 17//17
f 14//14 13//13 18//18
f 6//6 7//7 17//17
f 15//15 14//14 18//18
f 7//7 8//8 17//17
f 16//16 15//15 18//18
f 8//8 1//1 17//17
f 9//9 16//16 18//18
f 20//20 22//22 19//19
f 23//23 20//20 19//19
f 19//19 22//22 21//21
f 21//21 23//23 19//19
f 20//20 26//26 22//22
f 24//24 20//20 23//23
f 24//24 26//26 20//20
f 22//22 26//26 21//21
f 25//25 23//23 21//21
f 21//21 26//26 25//25
f 25//25 24//24 23//23
f 26//26 24//24 25//25
f 28//28 27//27 31//31
f 28//28 31//31 29//29
f 29//29 31//31 32//32
f 29//29 32//32 30//30
f 31//31 27//27 33//33
f 31//31 33//33 32//32
f 32//32 33//33 34//34
f 32//32 34//34 30//30
f 33//33 27//27 35//35
f 33//33 35//35 34//34
f 34//34 35//35 36//36
f 34//34 36//36 30//30
f 35//35 27//27 37//37
f 35//35 37//37 36//36
f 36//36 37//37 38//38
f 36//36 38//38 30//30
f 37//37 27//27 39//39
f 37//37 39//39 38//38
f 38//38 39//39 40//40
f 38//38 40//40 30//30
f 39//39 27//27 41//41
f 39//39 41//41 40//40
f 40//40 41//41 42//42
f 40//40 42//42 30//30
f 41//41 27//27 43//43
f 41//41 43//43 42//42
f 42//42 43//43 44//44
f 42//42 44//44 30//30
f 43//43 27//27 45//45
f 43//43 45//45 44//44
f 44//44 45//45 46//46
f 44//44 46//46 30//30
f 45//45 27//27 47//47
f 45//45 47//47 46//46
f 46//46 47//47 48//48
f 46//46 48//48 30//30
f 47//47 27//27 49//49
f 47//47 49//49 48//48
f 48//48 49//49 50//50
f 48//48 50//50 30//30
f 49//49 27//27 51//51
f 49//49 51//51 50//50
f 50//50 51//51 52//52
f 50//50 52//52 30//30
f 51//51 27//27 53//53
f 51//51 53//53 52//52
f 52//52 53//53 54//54
f 52//52 54//54 30//30
f 53//53 27//27 55//55
f 53//53 55//55 54//54
f 54//54 55//55 56//56
f 54//54 56//56 30//30
f 55//55 27//27 57//57
f 55//55 57//57 56//56
f 56//56 57//57 58//58
f 56//56 58//58 30//30
f 57//57 27//27 59//59
f 57//57 59//59 58//58
f 58//58 59//59 60//60
f 58//58 60//60 30//30
f 59//59 27//27 28//28
f 59//59 28//28 60//60
f 60//60 28//28 29//29
f 60//60 29//29 30//30
f 62//62 61//61 65//65
f 62//62 65//65 63//63
f 63//63 65//65 66//66
f 63//63 66//66 64//64
f 65//65 61//61 67//67
f 65//65 67//67 66//66
f 66//66 67//67 68//68
f 66//66 68//68 64//64
f 67//67 61//61 69//69
f 67//67 69//69 68//68
f 68//68 69//69 70//70
f 68//68 70//70 64//64
f 69//69 61//61 71//71
f 69//69 71//71 70//70
f 70//70 71//71 72//72
f 70//70 72//72 64//64
f 71//71 61//61 73//73
f 71//71 73//73 72//72
f 72//72 73//73 74//74
f 72//72 74//74 64//64
f 73//73 61//61 75//75
f 73//73 75//75 74//74
f 74//74 75//75 76//76
f 74//74 76//76 64//64
f 75//75 61//61 77//77
f 75//75 77//77 76//76
f 76//76 77//77 78//78
f 76//76 78//78 64//64
f 77//77 61//61 79//79
f 77//77 79//79 78//78
f 78//78 79//79 80//80
f 78//78 80//80 64//64
f 79//79 61//61 81//81
f 79//79 81//81 80//80
f 80//80 81//81 82//82
f 80//80 82//82 64//64
f 81//81 61//61 83//83
f 81//81 83//83 82//82
f 82//82 83//83 84//84
f 82//82 84//84 64//64
f 83//83 61//61 85//85
f 83//83 85//85 84//84
f 84//84 85//85 86//86
f 84//84 86//86 64//64
f 85//85 61//61 87//87
f 85//85 87//87 86//86
f 86//86 87//87 88//88
f 86//86 88//88 64//64
f 87//87 61//61 89//89
f 87//87 89//89 88//88
f 88//88 89//89 90//90
f 88//88 90//90 64//64
f 89//89 61//61 91//91
f 89//89 91//91 90//90
f 90//90 91//91 92//92
f 90//90 92//92 64//64
f 91//91 61//61 93//93
f 91//91 93//93 92//92
f 92//92 93//93 94//94
f 92//92 94//94 64//64
f 93//93 61//61 62//62
f 93//93 62//62 94//94
f 94//94 62//62 63//63
f 94//94 63//63 64//64
f 96//96 95//95 99//99
f 96//96 99//99 97//97
f 97//97 99//99 100//100
f 97//97 100//100 98//98
f 99//99 95//95 101//101
f 99//99 101//101 100//100
f 100//100 101//101 102//102
f 100//100 102//102 98//98
f 101//101 95//95 103//103
f 101//101 103//103 102//102
f 102//102 103//103 104//104
f 102//102 104//104 98//98
f 103//103 95//95 105//105
f 103//103 105//105 104//104
f 104//104 105//105 106//106
f 104//104 106//106 98//98
f 105//105 95//95 107//107
f 105//105 107//107 106//106
f 106//106 107//107 108//108
f 106//106 108//108 98//98
f 107//107 95//95 109//109
f 107//107 109//109 108//108
f 108//108 109//109 110//110
f 108//108 110//110 98//98
f 109//109 95//95 111//111
f 109//109 111//111 110//110
f 110//110 111//111 112//112
f 110//110 112//112 98//98
f 111//111 95//95 113//113
f 111//111 113//113 112//112
f 112//112 113//113 114//114
f 112//112 114//114 98//98
f 113//113 95//95 115//115
f 113//113 115//115 114//114
f 114//114 115//115 116//116
f 114//114 116//116 98//98
f 115//115 95//95 117//117
f 115//115 117//117 116//116
f 116//116 117//117 118//118
f 116//116 118//118 98//98
f 117//117 95//95 119//119
f 117//117 119//119 118//118
f 118//118 119//119 120//120
f 118//118 120//120 98//98
f 119//119 95//95 121//121
f 119//119 121//121 120//120
f 120//120 121//121 122//122
f 120//120 122//122 98//98
f 121//121 95//95 123//123
f 121//121 123//123 122//122
f 122//122 123//123 124//124
f 122//122 124//124 98//98
f 123//123 95//95 125//125
f 123//123 125//125 124//124
f 124//124 125//125 126//126
f 124//124 126//126 98//98
f 125//125 95//95 127//127
f 125//125 127//127 126//126
f 126//126 127//127 128//128
f 126//126 128//128 98//98
f 127//127 95//95 96//96
f 127//127 96//96 128//128
f 128//128 96//96 97//97
f 128//128 97//97 98//98
f 130//130 129//129 133//133
f 130//130 133//133 131//131
f 131//131 133//133 134//134
f 131//131 134//134 132//132
f 133//133 129//129 135//135
f 133//133 135//135 134//134
f 134//134 135//135 136//136
f 134//134 136//136 132//132
f 135//135 129//129 137//137
f 135//135 137//137 136//136
f 136//136 137//137 138//138
f 136//136 138//138 132//132
f 137//137 129//129 139//139
f 137//137 139//139 138//138
f 138//138 139//139 140//140
f 138//138 140//140 132//132
f 139//139 129//129 141//141
f 139//139 141//141 140//140
f 140//140 141//141 142//142
f 140//140 142//142 132//132
f 141//141 129//129 143//143
f 141//141 143//143 142//142
f 142//142 143//143 144//144
f 142//142 144//144 132//132
f 143//143 129//129 145//145
f 143//143 145//145 144//144
f 144//144 145//145 146//146
f 144//144 146//146 132//132
f 145//145 129//129 147//147
f 145//145 147//147 146//146
f 146//146 147//147 148//148
f 146//146 148//148 132//132
f 147//147 129//129 149//149
f 147//147 149//149 148//148
f 148//148 149//149 150//150
f 148//148 150//150 132//132
f 149//149 129//129 151//151
f 149//149 151//151 150//150
f 150//150 151//151 152//152
f 150//150 152//152 132//132
f 151//151 129//129 153//153
f 151//151 153//153 152//152
f 152//152 153//153 154//154
f 152//152 154//154 132//132
f 153//153 129//129 155//155
f 153//153 155//155 154//154
f 154//154 155//155 156//156
f 154//154 156//156 132//132
f 155//155 129//129 157//157
f 155//155 157//157 156//156
f 156//156 157//157 158//158
f 156//156 158//158 132//132
f 157//157 129//129 159//159
f 157//157 159//159 158//158
f 158//158 159//159 160//160
f 158//158 160//160 132//132
f 159//159 129//129 161//161
f 159//159 161//161 160//160
f 160//160 161//161 162//162
f 160//160 162//162 132//132
f 161//161 129//129 130//130
f 161//161 130//130 162//162
f 162//162 130//130 131//131
f 162//162 131//131 132//132
