mtllib scout_rover.mtl
o scout_rover_team_body
usemtl mat_scout_rover_team
v -0.360000 1.163533 0.914218
v -0.360000 1.274780 1.256598
v -0.360000 1.196820 0.903402
v -0.360000 1.308067 1.245782
v 0.360000 1.163533 0.914218
v 0.360000 1.274780 1.256598
v 0.360000 1.196820 0.903402
v 0.360000 1.308067 1.245782
v -1.390000 1.233300 -0.070000
v -1.050000 1.233300 -0.070000
v -1.390000 1.268300 -0.070000
v -1.050000 1.268300 -0.070000
v -1.390000 1.233300 -0.610000
v -1.050000 1.233300 -0.610000
v -1.390000 1.268300 -0.610000
v -1.050000 1.268300 -0.610000
v 1.050000 1.233300 -0.070000
v 1.390000 1.233300 -0.070000
v 1.050000 1.268300 -0.070000
v 1.390000 1.268300 -0.070000
v 1.050000 1.233300 -0.610000
v 1.390000 1.233300 -0.610000
v 1.050000 1.268300 -0.610000
v 1.390000 1.268300 -0.610000
v -0.320000 1.593300 -1.990000
v -0.320000 1.593300 -1.810000
v -0.320000 1.628300 -1.990000
v -0.320000 1.628300 -1.810000
v 0.320000 1.593300 -1.990000
v 0.320000 1.593300 -1.810000
v 0.320000 1.628300 -1.990000
v 0.320000 1.628300 -1.810000
v -0.700000 0.792098 1.790925
v -0.700000 0.837051 1.902187
v -0.700000 0.824549 1.777813
v -0.700000 0.869502 1.889075
v -0.340000 0.792098 1.790925
v -0.340000 0.837051 1.902187
v -0.340000 0.824549 1.777813
v -0.340000 0.869502 1.889075
v 0.340000 0.792098 1.790925
v 0.340000 0.837051 1.902187
v 0.340000 0.824549 1.777813
v 0.340000 0.869502 1.889075
v 0.700000 0.792098 1.790925
v 0.700000 0.837051 1.902187
v 0.700000 0.824549 1.777813
v 0.700000 0.869502 1.889075
vn -0.577350 -0.727504 -0.370682
vn -0.577350 -0.370682 0.727504
vn -0.577350 0.370682 -0.727504
vn -0.577350 0.727504 0.370682
vn 0.577350 -0.727504 -0.370682
vn 0.577350 -0.370682 0.727504
vn 0.577350 0.370682 -0.727504
vn 0.577350 0.727504 0.370682
vn -0.577350 -0.577350 0.577350
vn 0.577350 -0.577350 0.577350
vn -0.577350 0.577350 0.577350
vn 0.577350 0.577350 0.577350
vn -0.577350 -0.577350 -0.577350
vn 0.577350 -0.577350 -0.577350
vn -0.577350 0.577350 -0.577350
vn 0.577350 0.577350 -0.577350
vn -0.577350 -0.577350 0.577350
vn 0.577350 -0.577350 0.577350
vn -0.577350 0.577350 0.577350
vn 0.577350 0.577350 0.577350
vn -0.577350 -0.577350 -0.577350
vn 0.577350 -0.577350 -0.577350
vn -0.577350 0.577350 -0.577350
vn 0.577350 0.577350 -0.577350
vn -0.577350 -0.577350 -0.577350
vn -0.577350 -0.577350 0.577350
vn -0.577350 0.577350 -0.577350
vn -0.577350 0.577350 0.577350
vn 0.577350 -0.577350 -0.577350
vn 0.577350 -0.577350 0.577350
vn 0.577350 0.577350 -0.577350
vn 0.577350 0.577350 0.577350
vn -0.577350 -0.751589 -0.319031
vn -0.577350 -0.319031 0.751589
vn -0.577350 0.319031 -0.751589
vn -0.577350 0.751589 0.319031
vn 0.577350 -0.751589 -0.319031
vn 0.577350 -0.319031 0.751589
vn 0.577350 0.319031 -0.751589
vn 0.577350 0.751589 0.319031
vn -0.577350 -0.751589 -0.319031
vn -0.577350 -0.319031 0.751589
vn -0.577350 0.319031 -0.751589
vn -0.577350 0.751589 0.319031
vn 0.577350 -0.751589 -0.319031
vn 0.577350 -0.319031 0.751589
vn 0.577350 0.319031 -0.751589
vn 0.577350 0.751589 0.319031
f 2//2 4//4 1//1
f 5//5 2//2 1//1
f 1//1 4//4 3//3
f 3//3 5//5 1//1
f 2//2 8//8 4//4
f 6//6 2//2 5//5
f 6//6 8//8 2//2
f 4//4 8//8 3//3
f 7//7 5//5 3//3
f 3//3 8//8 7//7
f 7//7 6//6 5//5
f 8//8 6//6 7//7
f 10//10 12//12 9//9
f 13//13 10//10 9//9
f 9//9 12//12 11//11
f 11//11 13//13 9//9
f 10//10 16//16 12//12
f 14//14 10//10 13//13
f 14//14 16//16 10//10
f 12//12 16//16 11//11
f 15//15 13//13 11//11
f 11//11 16//16 15//15
f 15//15 14//14 13//13
f 16//16 14//14 15//15
f 18//18 20//20 17//17
f 21//21 18//18 17//17
f 17//17 20//20 19//19
f 19//19 21//21 17//17
f 18//18 24//24 20//20
f 22//22 18//18 21//21
f 22//22 24//24 18//18
f 20//20 24//24 19//19
f 23//23 21//21 19//19
f 19//19 24//24 23//23
f 23//23 22//22 21//21
f 24//24 22//22 23//23
f 26//26 28//28 25//25
f 29//29 26//26 25//25
f 25//25 28//28 27//27
f 27//27 29//29 25//25
f 26//26 32//32 28//28
f 30//30 26//26 29//29
f 30//30 32//32 26//26
f 28//28 32//32 27//27
f 31//31 29//29 27//27
f 27//27 32//32 31//31
f 31//31 30//30 29//29
f 32//32 30//30 31//31
f 34//34 36//36 33//33
f 37//37 34//34 33//33
f 33//33 36//36 35//35
f 35//35 37//37 33//33
f 34//34 40//40 36//36
f 38//38 34//34 37//37
f 38//38 40//40 34//34
f 36//36 40//40 35//35
f 39//39 37//37 35//35
f 35//35 40//40 39//39
f 39//39 38//38 37//37
f 40//40 38//38 39//39
f 42//42 44//44 41//41
f 45//45 42//42 41//41
f 41//41 44//44 43//43
f 43//43 45//45 41//41
f 42//42 48//48 44//44
f 46//46 42//42 45//45
f 46//46 48//48 42//42
f 44//44 48//48 43//43
f 47//47 45//45 43//43
f 43//43 48//48 47//47
f 47//47 46//46 45//45
f 48//48 46//46 47//47
