mtllib scout_rover.mtl
o scout_rover_hull
usemtl mat_scout_rover_body
v -1.195000 0.230800 -1.905000
v 1.195000 0.230800 -1.905000
v 1.375000 0.230800 -1.725000
v 1.375000 0.230800 1.465000
v 1.195000 0.230800 1.645000
v -1.195000 0.230800 1.645000
v -1.375000 0.230800 1.465000
v -1.375000 0.230800 -1.725000
v -1.195000 0.710800 -1.905000
v 1.195000 0.710800 -1.905000
v 1.375000 0.710800 -1.725000
v 1.375000 0.710800 1.465000
v 1.195000 0.710800 1.645000
v -1.195000 0.710800 1.645000
v -1.375000 0.710800 1.465000
v -1.375000 0.710800 -1.725000
v 0.000000 0.230800 -0.130000
v 0.000000 0.710800 -0.130000
v -1.140000 0.730800 0.340000
v 1.140000 0.730800 0.340000
v 1.300000 0.730800 1.740000
v 0.960000 0.730800 2.180000
v -0.960000 0.730800 2.180000
v -1.300000 0.730800 1.740000
v -1.020000 1.210800 0.270000
v 1.020000 1.210800 0.270000
v 1.080000 1.210800 1.370000
v 0.660000 1.210800 1.840000
v -0.660000 1.210800 1.840000
v -1.080000 1.210800 1.370000
v -0.000000 0.730800 1.420000
v 0.000000 1.210800 1.160000
v -1.050000 0.950800 -1.360000
v 1.050000 0.950800 -1.360000
v 1.180000 0.950800 0.370000
v 0.920000 0.950800 0.770000
v -0.920000 0.950800 0.770000
v -1.180000 0.950800 0.370000
v -0.860000 1.890800 -1.160000
v 0.860000 1.890800 -1.160000
v 0.920000 1.890800 0.240000
v 0.620000 1.890800 0.520000
v -0.620000 1.890800 0.520000
v -0.920000 1.890800 0.240000
v 0.000000 0.950800 -0.073333
v 0.000000 1.890800 -0.133333
v -0.700000 1.760800 -0.950000
v 0.700000 1.760800 -0.950000
v 0.820000 1.760800 -0.830000
v 0.820000 1.760800 0.270000
v 0.700000 1.760800 0.390000
v -0.700000 1.760800 0.390000
v -0.820000 1.760800 0.270000
v -0.820000 1.760800 -0.830000
v -0.700000 2.140800 -0.950000
v 0.700000 2.140800 -0.950000
v 0.820000 2.140800 -0.830000
v 0.820000 2.140800 0.270000
v 0.700000 2.140800 0.390000
v -0.700000 2.140800 0.390000
v -0.820000 2.140800 0.270000
v -0.820000 2.140800 -0.830000
v 0.000000 1.760800 -0.280000
v 0.000000 2.140800 -0.280000
v -1.200000 0.770800 -2.230000
v 1.200000 0.770800 -2.230000
v 1.120000 0.770800 -1.200000
v -1.120000 0.770800 -1.200000
v -0.980000 1.550800 -2.100000
v 0.980000 1.550800 -2.100000
v 0.900000 1.550800 -1.230000
v -0.900000 1.550800 -1.230000
v 0.000000 0.770800 -1.715000
v 0.000000 1.550800 -1.665000
v -1.350000 0.340800 2.060000
v -1.350000 0.340800 2.300000
v -1.350000 0.560800 2.060000
v -1.350000 0.560800 2.300000
v 1.350000 0.340800 2.060000
v 1.350000 0.340800 2.300000
v 1.350000 0.560800 2.060000
v 1.350000 0.560800 2.300000
v -1.190000 0.380800 -2.310000
v -1.190000 0.380800 -2.090000
v -1.190000 0.560800 -2.310000
v -1.190000 0.560800 -2.090000
v 1.190000 0.380800 -2.310000
v 1.190000 0.380800 -2.090000
v 1.190000 0.560800 -2.310000
v 1.190000 0.560800 -2.090000
v -0.220000 0.425800 2.240000
v -0.220000 0.425800 2.440000
v -0.220000 0.675800 2.240000
v -0.220000 0.675800 2.440000
v 0.220000 0.425800 2.240000
v 0.220000 0.425800 2.440000
v 0.220000 0.675800 2.240000
v 0.220000 0.675800 2.440000
v -1.559917 0.522073 -1.800000
v -1.559917 0.522073 1.480000
v -1.579449 0.801391 -1.800000
v -1.579449 0.801391 1.480000
v -1.300551 0.540209 -1.800000
v -1.300551 0.540209 1.480000
v -1.320083 0.819527 -1.800000
v -1.320083 0.819527 1.480000
v -1.624437 0.872914 0.460000
v -1.624437 0.872914 1.480000
v -1.652221 1.030483 0.460000
v -1.652221 1.030483 1.480000
v -1.407779 0.911117 0.460000
v -1.407779 0.911117 1.480000
v -1.435563 1.068686 0.460000
v -1.435563 1.068686 1.480000
v -1.624437 0.852914 -1.790000
v -1.624437 0.852914 -0.870000
v -1.652221 1.010483 -1.790000
v -1.652221 1.010483 -0.870000
v -1.407779 0.891117 -1.790000
v -1.407779 0.891117 -0.870000
v -1.435563 1.048686 -1.790000
v -1.435563 1.048686 -0.870000
v -1.371937 0.936469 -0.930000
v -1.371937 0.936469 0.170000
v -1.447090 1.471214 -0.930000
v -1.447090 1.471214 0.170000
v -1.272910 0.950386 -0.930000
v -1.272910 0.950386 0.170000
v -1.348063 1.485131 -0.930000
v -1.348063 1.485131 0.170000
v 1.300551 0.540209 -1.800000
v 1.300551 0.540209 1.480000
v 1.320083 0.819527 -1.800000
v 1.320083 0.819527 1.480000
v 1.559917 0.522073 -1.800000
v 1.559917 0.522073 1.480000
v 1.579449 0.801391 -1.800000
v 1.579449 0.801391 1.480000
v 1.407779 0.911117 0.460000
v 1.407779 0.911117 1.480000
v 1.435563 1.068686 0.460000
v 1.435563 1.068686 1.480000
v 1.624437 0.872914 0.460000
v 1.624437 0.872914 1.480000
v 1.652221 1.030483 0.460000
v 1.652221 1.030483 1.480000
v 1.407779 0.891117 -1.790000
v 1.407779 0.891117 -0.870000
v 1.435563 1.048686 -1.790000
v 1.435563 1.048686 -0.870000
v 1.624437 0.852914 -1.790000
v 1.624437 0.852914 -0.870000
v 1.652221 1.010483 -1.790000
v 1.652221 1.010483 -0.870000
v 1.272910 0.950386 -0.930000
v 1.272910 0.950386 0.170000
v 1.348063 1.485131 -0.930000
v 1.348063 1.485131 0.170000
v 1.371937 0.936469 -0.930000
v 1.371937 0.936469 0.170000
v 1.447090 1.471214 -0.930000
v 1.447090 1.471214 0.170000
vn -0.297109 -0.630262 -0.717284
vn 0.297109 -0.630262 -0.717284
vn 0.717284 -0.630262 -0.297109
vn 0.717284 -0.630262 0.297109
vn 0.297109 -0.630262 0.717284
vn -0.297109 -0.630262 0.717284
vn -0.717284 -0.630262 0.297109
vn -0.717284 -0.630262 -0.297109
vn -0.297109 0.630262 -0.717284
vn 0.297109 0.630262 -0.717284
vn 0.717284 0.630262 -0.297109
vn 0.717284 0.630262 0.297109
vn 0.297109 0.630262 0.717284
vn -0.297109 0.630262 0.717284
vn -0.717284 0.630262 0.297109
vn -0.717284 0.630262 -0.297109
vn 0.000000 -1.000000 0.000000
vn 0.000000 1.000000 0.000000
vn -0.622549 -0.549121 -0.557583
vn 0.639009 -0.540865 -0.546930
vn 0.857245 -0.380195 0.347249
vn 0.449651 -0.330036 0.829994
vn -0.436836 -0.335747 0.834535
vn -0.854064 -0.391695 0.342270
vn -0.463930 0.592585 -0.658492
vn 0.478467 0.590132 -0.650241
vn 0.581515 0.807579 0.098263
vn 0.179259 0.866602 0.465690
vn -0.169295 0.868800 0.465323
vn -0.561389 0.820384 0.108685
vn 0.000000 -1.000000 0.000000
vn 0.000000 1.000000 0.000000
vn -0.599294 -0.474930 -0.644428
vn 0.605635 -0.472122 -0.640552
vn 0.822329 -0.513406 0.245337
vn 0.449408 -0.470775 0.759212
vn -0.425107 -0.487373 0.762727
vn -0.816469 -0.530912 0.226959
vn -0.495514 0.687811 -0.530454
vn 0.504430 0.684870 -0.525836
vn 0.637452 0.729895 0.246794
vn 0.236149 0.745459 0.623318
vn -0.210230 0.755331 0.620708
vn -0.626769 0.746376 0.223795
vn 0.000000 -1.000000 0.000000
vn 0.000000 1.000000 0.000000
vn -0.297109 -0.630262 -0.717284
vn 0.297109 -0.630262 -0.717284
vn 0.717284 -0.630262 -0.297109
vn 0.717284 -0.630262 0.297109
vn 0.297109 -0.630262 0.717284
vn -0.297109 -0.630262 0.717284
vn -0.717284 -0.630262 0.297109
vn -0.717284 -0.630262 -0.297109
vn -0.297109 0.630262 -0.717284
vn 0.297109 0.630262 -0.717284
vn 0.717284 0.630262 -0.297109
vn 0.717284 0.630262 0.297109
vn 0.297109 0.630262 0.717284
vn -0.297109 0.630262 0.717284
vn -0.717284 0.630262 0.297109
vn -0.717284 0.630262 -0.297109
vn 0.000000 -1.000000 0.000000
vn 0.000000 1.000000 0.000000
vn -0.667605 -0.458067 -0.586923
vn 0.669894 -0.456711 -0.585368
vn 0.630632 -0.496251 0.596689
vn -0.627985 -0.497850 0.598147
vn -0.515249 0.687009 -0.512384
vn 0.518654 0.685800 -0.510564
vn 0.461725 0.654478 0.598722
vn -0.458645 0.655395 0.600085
vn 0.000000 -1.000000 0.000000
vn 0.000000 1.000000 0.000000
vn -0.577350 -0.577350 -0.577350
vn -0.577350 -0.577350 0.577350
vn -0.577350 0.577350 -0.577350
vn -0.577350 0.577350 0.577350
vn 0.577350 -0.577350 -0.577350
vn 0.577350 -0.577350 0.577350
vn 0.577350 0.577350 -0.577350
vn 0.577350 0.577350 0.577350
vn -0.577350 -0.577350 -0.577350
vn -0.577350 -0.577350 0.577350
vn -0.577350 0.577350 -0.577350
vn -0.577350 0.577350 0.577350
vn 0.577350 -0.577350 -0.577350
vn 0.577350 -0.577350 0.577350
vn 0.577350 0.577350 -0.577350
vn 0.577350 0.577350 0.577350
vn -0.577350 -0.577350 -0.577350
vn -0.577350 -0.577350 0.577350
vn -0.577350 0.577350 -0.577350
vn -0.577350 0.577350 0.577350
vn 0.577350 -0.577350 -0.577350
vn 0.577350 -0.577350 0.577350
vn 0.577350 0.577350 -0.577350
vn 0.577350 0.577350 0.577350
vn -0.535670 -0.616218 -0.577350
vn -0.535670 -0.616218 0.577350
vn -0.616218 0.535670 -0.577350
vn -0.616218 0.535670 0.577350
vn 0.616218 -0.535670 -0.577350
vn 0.616218 -0.535670 0.577350
vn 0.535670 0.616218 -0.577350
vn 0.535670 0.616218 0.577350
vn -0.468323 -0.668835 -0.577350
vn -0.468323 -0.668835 0.577350
vn -0.668835 0.468323 -0.577350
vn -0.668835 0.468323 0.577350
vn 0.668835 -0.468323 -0.577350
vn 0.668835 -0.468323 0.577350
vn 0.468323 0.668835 -0.577350
vn 0.468323 0.668835 0.577350
vn -0.468323 -0.668835 -0.577350
vn -0.468323 -0.668835 0.577350
vn -0.668835 0.468323 -0.577350
vn -0.668835 0.468323 0.577350
vn 0.668835 -0.468323 -0.577350
vn 0.668835 -0.468323 0.577350
vn 0.468323 0.668835 -0.577350
vn 0.468323 0.668835 0.577350
vn -0.491380 -0.652083 -0.577350
vn -0.491380 -0.652083 0.577350
vn -0.652083 0.491380 -0.577350
vn -0.652083 0.491380 0.577350
vn 0.652083 -0.491380 -0.577350
vn 0.652083 -0.491380 0.577350
vn 0.491380 0.652083 -0.577350
vn 0.491380 0.652083 0.577350
vn -0.616218 -0.535670 -0.577350
vn -0.616218 -0.535670 0.577350
vn -0.535670 0.616218 -0.577350
vn -0.535670 0.616218 0.577350
vn 0.535670 -0.616218 -0.577350
vn 0.535670 -0.616218 0.577350
vn 0.616218 0.535670 -0.577350
vn 0.616218 0.535670 0.577350
vn -0.668835 -0.468323 -0.577350
vn -0.668835 -0.468323 0.577350
vn -0.468323 0.668835 -0.577350
vn -0.468323 0.668835 0.577350
vn 0.468323 -0.668835 -0.577350
vn 0.468323 -0.668835 0.577350
vn 0.668835 0.468323 -0.577350
vn 0.668835 0.468323 0.577350
vn -0.668835 -0.468323 -0.577350
vn -0.668835 -0.468323 0.577350
vn -0.468323 0.668835 -0.577350
vn -0.468323 0.668835 0.577350
vn 0.468323 -0.668835 -0.577350
vn 0.468323 -0.668835 0.577350
vn 0.668835 0.468323 -0.577350
vn 0.668835 0.468323 0.577350
vn -0.652083 -0.491380 -0.577350
vn -0.652083 -0.491380 0.577350
vn -0.491380 0.652083 -0.577350
vn -0.491380 0.652083 0.577350
vn 0.491380 -0.652083 -0.577350
vn 0.491380 -0.652083 0.577350
vn 0.652083 0.491380 -0.577350
vn 0.652083 0.491380 0.577350
f 10//10 2//2 1//1
f 9//9 10//10 1//1
f 11//11 3//3 2//2
f 10//10 11//11 2//2
f 12//12 4//4 3//3
f 11//11 12//12 3//3
f 13//13 5//5 4//4
f 12//12 13//13 4//4
f 14//14 6//6 5//5
f 13//13 14//14 5//5
f 15//15 7//7 6//6
f 14//14 15//15 6//6
f 16//16 8//8 7//7
f 15//15 16//16 7//7
f 9//9 1//1 8//8
f 16//16 9//9 8//8
f 1//1 2//2 17//17
f 10//10 9//9 18//18
f 2//2 3//3 17//17
f 11//11 10//10 18//18
f 3//3 4//4 17//17
f 12//12 11//11 18//18
f 4//4 5//5 17//17
f 13//13 12//12 18//18
f 5//5 6//6 17//17
f 14//14 13//13 18//18
f 6//6 7//7 17//17
f 15//15 14//14 18//18
f 7//7 8//8 17//17
f 16//16 15//15 18//18
f 8//8 1//1 17//17
f 9//9 16//16 18//18
f 26//26 20//20 19//19
f 25//25 26//26 19//19
f 27//27 21//21 20//20
f 26//26 27//27 20//20
f 28//28 22//22 21//21
f 27//27 28//28 21//21
f 29//29 23//23 22//22
f 28//28 29//29 22//22
f 30//30 24//24 23//23
f 29//29 30//30 23//23
f 25//25 19//19 24//24
f 30//30 25//25 24//24
f 19//19 20//20 31//31
f 26//26 25//25 32//32
f 20//20 21//21 31//31
f 27//27 26//26 32//32
f 21//21 22//22 31//31
f 28//28 27//27 32//32
f 22//22 23//23 31//31
f 29//29 28//28 32//32
f 23//23 24//24 31//31
f 30//30 29//29 32//32
f 24//24 19//19 31//31
f 25//25 30//30 32//32
f 40//40 34//34 33//33
f 39//39 40//40 33//33
f 41//41 35//35 34//34
f 40//40 41//41 34//34
f 42//42 36//36 35//35
f 41//41 42//42 35//35
f 43//43 37//37 36//36
f 42//42 43//43 36//36
f 44//44 38//38 37//37
f 43//43 44//44 37//37
f 39//39 33//33 38//38
f 44//44 39//39 38//38
f 33//33 34//34 45//45
f 40//40 39//39 46//46
f 34//34 35//35 45//45
f 41//41 40//40 46//46
f 35//35 36//36 45//45
f 42//42 41//41 46//46
f 36//36 37//37 45//45
f 43//43 42//42 46//46
f 37//37 38//38 45//45
f 44//44 43//43 46//46
f 38//38 33//33 45//45
f 39//39 44//44 46//46
f 56//56 48//48 47//47
f 55//55 56//56 47//47
f 57//57 49//49 48//48
f 56//56 57//57 48//48
f 58//58 50//50 49//49
f 57//57 58//58 49//49
f 59//59 51//51 50//50
f 58//58 59//59 50//50
f 60//60 52//52 51//51
f 59//59 60//60 51//51
f 61//61 53//53 52//52
f 60//60 61//61 52//52
f 62//62 54//54 53//53
f 61//61 62//62 53//53
f 55//55 47//47 54//54
f 62//62 55//55 54//54
f 47//47 48//48 63//63
f 56//56 55//55 64//64
f 48//48 49//49 63//63
f 57//57 56//56 64//64
f 49//49 50//50 63//63
f 58//58 57//57 64//64
f 50//50 51//51 63//63
f 59//59 58//58 64//64
f 51//51 52//52 63//63
f 60//60 59//59 64//64
f 52//52 53//53 63//63
f 61//61 60//60 64//64
f 53//53 54//54 63//63
f 62//62 61//61 64//64
f 54//54 47//47 63//63
f 55//55 62//62 64//64
f 70//70 66//66 65//65
f 69//69 70//70 65//65
f 71//71 67//67 66//66
f 70//70 71//71 66//66
f 72//72 68//68 67//67
f 71//71 72//72 67//67
f 69//69 65//65 68//68
f 72//72 69//69 68//68
f 65//65 66//66 73//73
f 70//70 69//69 74//74
f 66//66 67//67 73//73
f 71//71 70//70 74//74
f 67//67 68//68 73//73
f 72//72 71//71 74//74
f 68//68 65//65 73//73
f 69//69 72//72 74//74
f 76//76 78//78 75//75
f 79//79 76//76 75//75
f 75//75 78//78 77//77
f 77//77 79//79 75//75
f 76//76 82//82 78//78
f 80//80 76//76 79//79
f 80//80 82//82 76//76
f 78//78 82//82 77//77
f 81//81 79//79 77//77
f 77//77 82//82 81//81
f 81//81 80//80 79//79
f 82//82 80//80 81//81
f 84//84 86//86 83//83
f 87//87 84//84 83//83
f 83//83 86//86 85//85
f 85//85 87//87 83//83
f 84//84 90//90 86//86
f 88//88 84//84 87//87
f 88//88 90//90 84//84
f 86//86 90//90 85//85
f 89//89 87//87 85//85
f 85//85 90//90 89//89
f 89//89 88//88 87//87
f 90//90 88//88 89//89
f 92//92 94//94 91//91
f 95//95 92//92 91//91
f 91//91 94//94 93//93
f 93//93 95//95 91//91
f 92//92 98//98 94//94
f 96//96 92//92 95//95
f 96//96 98//98 92//92
f 94//94 98//98 93//93
f 97//97 95//95 93//93
f 93//93 98//98 97//97
f 97//97 96//96 95//95
f 98//98 96//96 97//97
f 100//100 102//102 99//99
f 103//103 100//100 99//99
f 99//99 102//102 101//101
f 101//101 103//103 99//99
f 100//100 106//106 102//102
f 104//104 100//100 103//103
f 104//104 106//106 100//100
f 102//102 106//106 101//101
f 105//105 103//103 101//101
f 101//101 106//106 105//105
f 105//105 104//104 103//103
f 106//106 104//104 105//105
f 108//108 110//110 107//107
f 111//111 108//108 107//107
f 107//107 110//110 109//109
f 109//109 111//111 107//107
f 108//108 114//114 110//110
f 112//112 108//108 111//111
f 112//112 114//114 108//108
f 110//110 114//114 109//109
f 113//113 111//111 109//109
f 109//109 114//114 113//113
f 113//113 112//112 111//111
f 114//114 112//112 113//113
f 116//116 118//118 115//115
f 119//119 116//116 115//115
f 115//115 118//118 117//117
f 117//117 119//119 115//115
f 116//116 122//122 118//118
f 120//120 116//116 119//119
f 120//120 122//122 116//116
f 118//118 122//122 117//117
f 121//121 119//119 117//117
f 117//117 122//122 121//121
f 121//121 120//120 119//119
f 122//122 120//120 121//121
f 124//124 126//126 123//123
f 127//127 124//124 123//123
f 123//123 126//126 125//125
f 125//125 127//127 123//123
f 124//124 130//130 126//126
f 128//128 124//124 127//127
f 128//128 130//130 124//124
f 126//126 130//130 125//125
f 129//129 127//127 125//125
f 125//125 130//130 129//129
f 129//129 128//128 127//127
f 130//130 128//128 129//129
f 132//132 134//134 131//131
f 135//135 132//132 131//131
f 131//131 134//134 133//133
f 133//133 135//135 131//131
f 132//132 138//138 134//134
f 136//136 132//132 135//135
f 136//136 138//138 132//132
f 134//134 138//138 133//133
f 137//137 135//135 133//133
f 133//133 138//138 137//137
f 137//137 136//136 135//135
f 138//138 136//136 137//137
f 140//140 142//142 139//139
f 143//143 140//140 139//139
f 139//139 142//142 141//141
f 141//141 143//143 139//139
f 140//140 146//146 142//142
f 144//144 140//140 143//143
f 144//144 146//146 140//140
f 142//142 146//146 141//141
f 145//145 143//143 141//141
f 141//141 146//146 145//145
f 145//145 144//144 143//143
f 146//146 144//144 145//145
f 148//148 150//150 147//147
f 151//151 148//148 147//147
f 147//147 150//150 149//149
f 149//149 151//151 147//147
f 148//148 154//154 150//150
f 152//152 148//148 151//151
f 152//152 154//154 148//148
f 150//150 154//154 149//149
f 153//153 151//151 149//149
f 149//149 154//154 153//153
f 153//153 152//152 151//151
f 154//154 152//152 153//153
f 156//156 158//158 155//155
f 159//159 156//156 155//155
f 155//155 158//158 157//157
f 157//157 159//159 155//155
f 156//156 162//162 158//158
f 160//160 156//156 159//159
f 160//160 162//162 156//156
f 158//158 162//162 157//157
f 161//161 159//159 157//157
f 157//157 162//162 161//161
f 161//161 160//160 159//159
f 162//162 160//160 161//161
