mtllib scout_rover.mtl
o scout_rover_glass
usemtl mat_scout_rover_glass
v -0.725000 1.341823 0.486311
v -0.725000 1.599051 0.867669
v -0.725000 1.362549 0.472331
v -0.725000 1.619777 0.853689
v 0.725000 1.341823 0.486311
v 0.725000 1.599051 0.867669
v 0.725000 1.362549 0.472331
v 0.725000 1.619777 0.853689
v -1.160000 1.388300 0.270000
v -0.800000 1.388300 0.270000
v -1.160000 1.413300 0.270000
v -0.800000 1.413300 0.270000
v -1.160000 1.388300 -0.350000
v -0.800000 1.388300 -0.350000
v -1.160000 1.413300 -0.350000
v -0.800000 1.413300 -0.350000
v 0.800000 1.388300 0.270000
v 1.160000 1.388300 0.270000
v 0.800000 1.413300 0.270000
v 1.160000 1.413300 0.270000
v 0.800000 1.388300 -0.350000
v 1.160000 1.388300 -0.350000
v 0.800000 1.413300 -0.350000
v 1.160000 1.413300 -0.350000
v -0.430000 1.308300 -2.000000
v -0.430000 1.308300 -1.700000
v -0.430000 1.333300 -2.000000
v -0.430000 1.333300 -1.700000
v 0.430000 1.308300 -2.000000
v 0.430000 1.308300 -1.700000
v 0.430000 1.333300 -2.000000
v 0.430000 1.333300 -1.700000
vn -0.577350 -0.801495 -0.155795
vn -0.577350 -0.155795 0.801495
vn -0.577350 0.155795 -0.801495
vn -0.577350 0.801495 0.155795
vn 0.577350 -0.801495 -0.155795
vn 0.577350 -0.155795 0.801495
vn 0.577350 0.155795 -0.801495
vn 0.577350 0.801495 0.155795
vn -0.577350 -0.577350 0.577350
vn 0.577350 -0.577350 0.577350
vn -0.577350 0.577350 0.577350
vn 0.577350 0.577350 0.577350
vn -0.577350 -0.577350 -0.577350
vn 0.577350 -0.577350 -0.577350
vn -0.577350 0.577350 -0.577350
vn 0.577350 0.577350 -0.577350
vn -0.577350 -0.577350 0.577350
vn 0.577350 -0.577350 0.577350
vn -0.577350 0.577350 0.577350
vn 0.577350 0.577350 0.577350
vn -0.577350 -0.577350 -0.577350
vn 0.577350 -0.577350 -0.577350
vn -0.577350 0.577350 -0.577350
vn 0.577350 0.577350 -0.577350
vn -0.577350 -0.577350 -0.577350
vn -0.577350 -0.577350 0.577350
vn -0.577350 0.577350 -0.577350
vn -0.577350 0.577350 0.577350
vn 0.577350 -0.577350 -0.577350
vn 0.577350 -0.577350 0.577350
vn 0.577350 0.577350 -0.577350
vn 0.577350 0.577350 0.577350
f 2//2 4//4 1//1
f 5//5 2//2 1//1
f 1//1 4//4 3//3
f 3//3 5//5 1//1
f 2//2 8//8 4//4
f 6//6 2//2 5//5
f 6//6 8//8 2//2
f 4//4 8//8 3//3
f 7//7 5//5 3//3
f 3//3 8//8 7//7
f 7//7 6//6 5//5
f 8//8 6//6 7//7
f 10//10 12//12 9//9
f 13//13 10//10 9//9
f 9//9 12//12 11//11
f 11//11 13//13 9//9
f 10//10 16//16 12//12
f 14//14 10//10 13//13
f 14//14 16//16 10//10
f 12//12 16//16 11//11
f 15//15 13//13 11//11
f 11//11 16//16 15//15
f 15//15 14//14 13//13
f 16//16 14//14 15//15
f 18//18 20//20 17//17
f 21//21 18//18 17//17
f 17//17 20//20 19//19
f 19//19 21//21 17//17
f 18//18 24//24 20//20
f 22//22 18//18 21//21
f 22//22 24//24 18//18
f 20//20 24//24 19//19
f 23//23 21//21 19//19
f 19//19 24//24 23//23
f 23//23 22//22 21//21
f 24//24 22//22 23//23
f 26//26 28//28 25//25
f 29//29 26//26 25//25
f 25//25 28//28 27//27
f 27//27 29//29 25//25
f 26//26 32//32 28//28
f 30//30 26//26 29//29
f 30//30 32//32 26//26
f 28//28 32//32 27//27
f 31//31 29//29 27//27
f 27//27 32//32 31//31
f 31//31 30//30 29//29
f 32//32 30//30 31//31
